M48
; DRILL file {KiCad 9.0.7} date 2026-03-18T23:33:47+0900
; FORMAT={-:-/ absolute / metric / decimal}
; #@! TF.CreationDate,2026-03-18T23:33:47+09:00
; #@! TF.GenerationSoftware,Kicad,Pcbnew,9.0.7
; #@! TF.FileFunction,Plated,1,2,PTH
FMAT,2
METRIC
; #@! TA.AperFunction,Plated,PTH,ViaDrill
T1C0.300
; #@! TA.AperFunction,Plated,PTH,ComponentDrill
T2C0.600
; #@! TA.AperFunction,Plated,PTH,ComponentDrill
T3C0.750
%
G90
G05
T1
X5.832Y-21.023
X7.448Y-26.75
X7.452Y-27.501
X9.317Y-41.393
X9.637Y-22.577
X10.345Y-28.18
X10.505Y-11.241
X10.83Y-16.016
X12.063Y-32.218
X12.608Y-14.101
X12.655Y-26.071
X12.955Y-23.947
X13.256Y-33.85
X18.439Y-20.153
X19.423Y-33.833
X22.45Y-32.09
X26.587Y-32.673
X31.044Y-40.277
X35.417Y-29.386
X36.562Y-28.782
X37.25Y-28.392
X45.624Y-25.882
X48.243Y-27.827
X49.656Y-29.625
X50.789Y-26.3
X50.948Y-30.16
T3
X57.0Y-9.0
X57.0Y-11.0
X57.0Y-22.0
X57.0Y-24.0
X57.0Y-33.0
X57.0Y-35.0
T2
X3.45Y-20.38G85X3.45Y-20.98
G05
X3.45Y-29.02G85X3.45Y-29.62
G05
X7.63Y-20.13G85X7.63Y-21.23
G05
X7.63Y-28.77G85X7.63Y-29.87
G05
M30
