%TF.GenerationSoftware,KiCad,Pcbnew,9.0.7*%
%TF.CreationDate,2026-03-18T21:45:10+09:00*%
%TF.ProjectId,rove_v,726f7665-5f76-42e6-9b69-6361645f7063,rev?*%
%TF.SameCoordinates,Original*%
%TF.FileFunction,Copper,L2,Bot*%
%TF.FilePolarity,Positive*%
%FSLAX46Y46*%
G04 Gerber Fmt 4.6, Leading zero omitted, Abs format (unit mm)*
G04 Created by KiCad (PCBNEW 9.0.7) date 2026-03-18 21:45:10*
%MOMM*%
%LPD*%
G01*
G04 APERTURE LIST*
G04 Aperture macros list*
%AMRoundRect*
0 Rectangle with rounded corners*
0 $1 Rounding radius*
0 $2 $3 $4 $5 $6 $7 $8 $9 X,Y pos of 4 corners*
0 Add a 4 corners polygon primitive as box body*
4,1,4,$2,$3,$4,$5,$6,$7,$8,$9,$2,$3,0*
0 Add four circle primitives for the rounded corners*
1,1,$1+$1,$2,$3*
1,1,$1+$1,$4,$5*
1,1,$1+$1,$6,$7*
1,1,$1+$1,$8,$9*
0 Add four rect primitives between the rounded corners*
20,1,$1+$1,$2,$3,$4,$5,0*
20,1,$1+$1,$4,$5,$6,$7,0*
20,1,$1+$1,$6,$7,$8,$9,0*
20,1,$1+$1,$8,$9,$2,$3,0*%
G04 Aperture macros list end*
%TA.AperFunction,HeatsinkPad*%
%ADD10O,1.000000X2.100000*%
%TD*%
%TA.AperFunction,HeatsinkPad*%
%ADD11O,1.000000X1.600000*%
%TD*%
%TA.AperFunction,ComponentPad*%
%ADD12RoundRect,0.250000X-0.350000X-0.625000X0.350000X-0.625000X0.350000X0.625000X-0.350000X0.625000X0*%
%TD*%
%TA.AperFunction,ComponentPad*%
%ADD13O,1.200000X1.750000*%
%TD*%
%TA.AperFunction,ViaPad*%
%ADD14C,0.600000*%
%TD*%
%TA.AperFunction,Conductor*%
%ADD15C,0.200000*%
%TD*%
G04 APERTURE END LIST*
D10*
%TO.P,J1,S1*%
%TO.N,GND*%
X180000Y-21870000D03*
D11*
X180000Y-26050000D03*
D10*
X8820000Y-21870000D03*
D11*
X8820000Y-26050000D03*
%TD*%
D12*
%TO.P,J2,1*%
%TO.N,/VBAT*%
X57000000Y-9000000D03*
D13*
%TO.P,J2,2*%
%TO.N,/BATT_NEG*%
X57000000Y-11000000D03*
%TD*%
D12*
%TO.P,J3,1*%
%TO.N,/AOUT1*%
X57000000Y-22000000D03*
D13*
%TO.P,J3,2*%
%TO.N,/AOUT2*%
X57000000Y-24000000D03*
%TD*%
D12*
%TO.P,J4,1*%
%TO.N,/BOUT1*%
X57000000Y-33000000D03*
D13*
%TO.P,J4,2*%
%TO.N,/BOUT2*%
X57000000Y-35000000D03*
%TD*%
D14*
%TO.N,/3V3*%
X31119000Y-13671000D03*
X32070000Y-41120000D03*
%TO.N,/AOUT1*%
X51188000Y-26404000D03*
%TO.N,/AOUT2*%
X50926000Y-27550000D03*
%TO.N,/BATT_NEG*%
X22052000Y-11569000D03*
X20759000Y-33833000D03*
%TO.N,/DRV_SLEEP*%
X36385000Y-27453000D03*
X45257000Y-25725000D03*
%TO.N,/DW01_OD*%
X10024000Y-37300000D03*
X6609000Y-38136000D03*
%TO.N,/I2S_SD*%
X33941000Y-44408000D03*
X33941000Y-29230000D03*
%TO.N,/IO0*%
X27275000Y-31982000D03*
X9317000Y-41351000D03*
X12281000Y-32876000D03*
%TO.N,/RIGHT_IN1*%
X36216000Y-15356000D03*
X51135000Y-30275000D03*
%TO.N,/RIGHT_IN2*%
X46843000Y-31108000D03*
X37615000Y-25743000D03*
%TO.N,/STATUS_LED*%
X12859000Y-10086000D03*
X26808000Y-32409000D03*
%TO.N,/USB_D+*%
X11243000Y-29567000D03*
X5766000Y-22062000D03*
%TO.N,/USB_D-*%
X10421000Y-29100000D03*
X4826000Y-19853000D03*
%TO.N,/VBAT*%
X10805000Y-16871000D03*
X9582000Y-35009000D03*
X57917000Y-28325000D03*
%TO.N,GND*%
X22886000Y-15740000D03*
X25526000Y-18380000D03*
X5063000Y-9081000D03*
%TD*%
D15*
%TO.N,/3V3*%
X32070000Y-41120000D02*
X31119000Y-40169000D01*
X31119000Y-40169000D02*
X31119000Y-13671000D01*
%TO.N,/AOUT1*%
X51188000Y-26404000D02*
X55592000Y-22000000D01*
X55592000Y-22000000D02*
X57000000Y-22000000D01*
%TO.N,/AOUT2*%
X50926000Y-27550000D02*
X52533000Y-27550000D01*
X52533000Y-27550000D02*
X56083000Y-24000000D01*
X57000000Y-24000000D02*
X56083000Y-24000000D01*
%TO.N,/BATT_NEG*%
X22052000Y-11569000D02*
X22052000Y-32540000D01*
X22052000Y-32540000D02*
X20759000Y-33833000D01*
%TO.N,/DRV_SLEEP*%
X36385000Y-27453000D02*
X36385000Y-25333000D01*
X36385000Y-25333000D02*
X36442000Y-25276000D01*
X36442000Y-25276000D02*
X44808000Y-25276000D01*
X44808000Y-25276000D02*
X45257000Y-25725000D01*
%TO.N,/DW01_OD*%
X10024000Y-37300000D02*
X7445000Y-37300000D01*
X7445000Y-37300000D02*
X6609000Y-38136000D01*
%TO.N,/I2S_SD*%
X33941000Y-44408000D02*
X33941000Y-29230000D01*
%TO.N,/IO0*%
X12281000Y-34842000D02*
X12281000Y-38387000D01*
X12281000Y-38387000D02*
X9317000Y-41351000D01*
X12281000Y-32876000D02*
X12281000Y-34842000D01*
X12281000Y-34842000D02*
X25036000Y-34842000D01*
X25036000Y-34842000D02*
X27275000Y-32603000D01*
X27275000Y-32603000D02*
X27275000Y-31982000D01*
%TO.N,/RIGHT_IN1*%
X36216000Y-15356000D02*
X51135000Y-30275000D01*
%TO.N,/RIGHT_IN2*%
X46843000Y-31108000D02*
X41478000Y-25743000D01*
X41478000Y-25743000D02*
X37615000Y-25743000D01*
%TO.N,/STATUS_LED*%
X26808000Y-32409000D02*
X24831000Y-32409000D01*
X24831000Y-32409000D02*
X22815000Y-34425000D01*
X22815000Y-34425000D02*
X20508000Y-34425000D01*
X20508000Y-34425000D02*
X12859000Y-26776000D01*
X12859000Y-26776000D02*
X12859000Y-10086000D01*
%TO.N,/USB_D+*%
X11243000Y-29567000D02*
X11243000Y-29119000D01*
X11243000Y-29119000D02*
X9291000Y-27167000D01*
X9291000Y-27167000D02*
X8188000Y-27167000D01*
X8188000Y-27167000D02*
X5766000Y-24745000D01*
X5766000Y-24745000D02*
X5766000Y-22062000D01*
%TO.N,/USB_D-*%
X4826000Y-19853000D02*
X4826000Y-24982000D01*
X4826000Y-24982000D02*
X8944000Y-29100000D01*
X8944000Y-29100000D02*
X10421000Y-29100000D01*
%TO.N,/VBAT*%
X10805000Y-16871000D02*
X12370000Y-18436000D01*
X12370000Y-18436000D02*
X12370000Y-32127000D01*
X12370000Y-32127000D02*
X9582000Y-34915000D01*
X9582000Y-34915000D02*
X9582000Y-35009000D01*
X57917000Y-9000000D02*
X57917000Y-28325000D01*
X57000000Y-9000000D02*
X57917000Y-9000000D01*
%TO.N,GND*%
X5063000Y-9081000D02*
X8401000Y-12419000D01*
X8401000Y-12419000D02*
X8401000Y-12439000D01*
X8401000Y-12439000D02*
X8815000Y-12853000D01*
X8815000Y-12853000D02*
X8820000Y-12853000D01*
X8820000Y-12853000D02*
X8820000Y-21870000D01*
X22886000Y-15740000D02*
X25526000Y-18380000D01*
X8820000Y-26050000D02*
X8820000Y-21870000D01*
%TD*%
%TA.AperFunction,Conductor*%
%TO.N,GND*%
G36*
X46531931Y-44280187D02*
G01*
X46532017Y-44279539D01*
X46540071Y-44280599D01*
X46540073Y-44280600D01*
X46645527Y-44280600D01*
X78648936Y-44280600D01*
X78715975Y-44300285D01*
X78761730Y-44353089D01*
X78771674Y-44422247D01*
X78742649Y-44485803D01*
X78683871Y-44523577D01*
X78681066Y-44524364D01*
X78599116Y-44546323D01*
X78599109Y-44546326D01*
X78462190Y-44625375D01*
X78462182Y-44625381D01*
X78350381Y-44737182D01*
X78350375Y-44737190D01*
X78271326Y-44874109D01*
X78271323Y-44874116D01*
X78230400Y-45026843D01*
X78230400Y-45184957D01*
X78255640Y-45279152D01*
X78271323Y-45337683D01*
X78271326Y-45337690D01*
X78350375Y-45474609D01*
X78350379Y-45474614D01*
X78350380Y-45474616D01*
X78462184Y-45586420D01*
X78462186Y-45586421D01*
X78462190Y-45586424D01*
X78576949Y-45652679D01*
X78599116Y-45665477D01*
X78751843Y-45706400D01*
X78889993Y-45706400D01*
X78904230Y-45707220D01*
X78913285Y-45708266D01*
X79004474Y-45732701D01*
X79109927Y-45732701D01*
X79109931Y-45732700D01*
X83256173Y-45732700D01*
X83361627Y-45732700D01*
X83463488Y-45705407D01*
X83554813Y-45652680D01*
X83739474Y-45468019D01*
X83800797Y-45434534D01*
X83827155Y-45431700D01*
X84179076Y-45431700D01*
X84246115Y-45451385D01*
X84291870Y-45504189D01*
X84301814Y-45573347D01*
X84272789Y-45636903D01*
X84241076Y-45663087D01*
X84229487Y-45669777D01*
X84229482Y-45669781D01*
X84117681Y-45781582D01*
X84117675Y-45781590D01*
X84038626Y-45918509D01*
X84038623Y-45918516D01*
X83997700Y-46071243D01*
X83997700Y-46133045D01*
X83978015Y-46200084D01*
X83961381Y-46220726D01*
X83667426Y-46514681D01*
X83606103Y-46548166D01*
X83579745Y-46551000D01*
X48536155Y-46551000D01*
X48469116Y-46531315D01*
X48448474Y-46514681D01*
X46422415Y-44488622D01*
X46388930Y-44427299D01*
X46393914Y-44357607D01*
X46435786Y-44301674D01*
X46501250Y-44277257D01*
X46531931Y-44280187D01*
G37*
%TD.AperFunction*%
%TA.AperFunction,Conductor*%
G36*
X99442539Y-520185D02*
G01*
X99488294Y-572989D01*
X99499500Y-624500D01*
X99499500Y-79375500D01*
X99479815Y-79442539D01*
X99427011Y-79488294D01*
X99375500Y-79499500D01*
X624500Y-79499500D01*
X557461Y-79479815D01*
X511706Y-79427011D01*
X500500Y-79375500D01*
X500500Y-51015043D01*
X11786000Y-51015043D01*
X11786000Y-51173156D01*
X11826923Y-51325883D01*
X11826926Y-51325890D01*
X11905975Y-51462809D01*
X11905981Y-51462817D01*
X11949681Y-51506517D01*
X11983166Y-51567840D01*
X11986000Y-51594198D01*
X11986000Y-55038126D01*
X12013293Y-55139989D01*
X12039656Y-55185650D01*
X12066020Y-55231313D01*
X12066021Y-55231314D01*
X12066022Y-55231315D01*
X13736481Y-56901773D01*
X13769966Y-56963096D01*
X13772800Y-56989454D01*
X13772800Y-57051257D01*
X13805120Y-57171875D01*
X13813723Y-57203983D01*
X13813726Y-57203990D01*
X13892775Y-57340909D01*
X13892779Y-57340914D01*
X13892780Y-57340916D01*
X14004584Y-57452720D01*
X14004586Y-57452721D01*
X14004590Y-57452724D01*
X14141509Y-57531773D01*
X14141516Y-57531777D01*
X14294243Y-57572700D01*
X14356045Y-57572700D01*
X14423084Y-57592385D01*
X14443726Y-57609019D01*
X14807587Y-57972880D01*
X14898912Y-58025607D01*
X15000773Y-58052900D01*
X15106227Y-58052900D01*
X45045402Y-58052900D01*
X45112441Y-58072585D01*
X45133083Y-58089219D01*
X45176784Y-58132920D01*
X45176786Y-58132921D01*
X45176790Y-58132924D01*
X45313709Y-58211973D01*
X45313716Y-58211977D01*
X45466443Y-58252900D01*
X45466445Y-58252900D01*
X45624555Y-58252900D01*
X45624557Y-58252900D01*
X45777284Y-58211977D01*
X45914216Y-58132920D01*
X45957917Y-58089219D01*
X46019240Y-58055734D01*
X46045598Y-58052900D01*
X77975225Y-58052900D01*
X77975227Y-58052900D01*
X78077088Y-58025607D01*
X78168413Y-57972880D01*
X86809393Y-49331898D01*
X95099500Y-49331898D01*
X95099500Y-50668102D01*
X95103516Y-50701541D01*
X95110122Y-50756561D01*
X95165639Y-50897343D01*
X95257077Y-51017922D01*
X95377656Y-51109360D01*
X95377657Y-51109360D01*
X95377658Y-51109361D01*
X95518436Y-51164877D01*
X95606898Y-51175500D01*
X95606903Y-51175500D01*
X96393097Y-51175500D01*
X96393102Y-51175500D01*
X96481564Y-51164877D01*
X96622342Y-51109361D01*
X96742922Y-51017922D01*
X96834361Y-50897342D01*
X96889877Y-50756564D01*
X96900500Y-50668102D01*
X96900500Y-50597080D01*
X96920185Y-50530041D01*
X96972989Y-50484286D01*
X97042147Y-50474342D01*
X97105703Y-50503367D01*
X97139061Y-50549628D01*
X97201983Y-50701541D01*
X97201990Y-50701553D01*
X97300535Y-50849034D01*
X97300538Y-50849038D01*
X97425961Y-50974461D01*
X97425965Y-50974464D01*
X97573446Y-51073009D01*
X97573459Y-51073016D01*
X97696363Y-51123923D01*
X97737334Y-51140894D01*
X97737336Y-51140894D01*
X97737341Y-51140896D01*
X97911304Y-51175499D01*
X97911307Y-51175500D01*
X97911309Y-51175500D01*
X98088693Y-51175500D01*
X98088694Y-51175499D01*
X98146682Y-51163964D01*
X98262658Y-51140896D01*
X98262661Y-51140894D01*
X98262666Y-51140894D01*
X98426547Y-51073013D01*
X98574035Y-50974464D01*
X98699464Y-50849035D01*
X98798013Y-50701547D01*
X98865894Y-50537666D01*
X98866520Y-50534523D01*
X98900499Y-50363695D01*
X98900500Y-50363693D01*
X98900500Y-49636306D01*
X98900499Y-49636304D01*
X98865896Y-49462341D01*
X98865893Y-49462332D01*
X98798016Y-49298459D01*
X98798009Y-49298446D01*
X98699464Y-49150965D01*
X98699461Y-49150961D01*
X98574038Y-49025538D01*
X98574034Y-49025535D01*
X98426553Y-48926990D01*
X98426540Y-48926983D01*
X98262667Y-48859106D01*
X98262658Y-48859103D01*
X98088694Y-48824500D01*
X98088691Y-48824500D01*
X97911309Y-48824500D01*
X97911306Y-48824500D01*
X97737341Y-48859103D01*
X97737332Y-48859106D01*
X97573459Y-48926983D01*
X97573446Y-48926990D01*
X97425965Y-49025535D01*
X97425961Y-49025538D01*
X97300538Y-49150961D01*
X97300535Y-49150965D01*
X97201990Y-49298446D01*
X97201983Y-49298459D01*
X97139061Y-49450371D01*
X97095221Y-49504775D01*
X97028927Y-49526840D01*
X96961227Y-49509561D01*
X96913616Y-49458424D01*
X96900500Y-49402919D01*
X96900500Y-49331903D01*
X96900500Y-49331898D01*
X96889877Y-49243436D01*
X96834361Y-49102658D01*
X96834360Y-49102657D01*
X96834360Y-49102656D01*
X96742922Y-48982077D01*
X96622343Y-48890639D01*
X96481561Y-48835122D01*
X96435926Y-48829642D01*
X96393102Y-48824500D01*
X95606898Y-48824500D01*
X95567853Y-48829188D01*
X95518438Y-48835122D01*
X95377656Y-48890639D01*
X95257077Y-48982077D01*
X95165639Y-49102656D01*
X95110122Y-49243438D01*
X95104188Y-49292853D01*
X95099500Y-49331898D01*
X86809393Y-49331898D01*
X87712973Y-48428318D01*
X87774296Y-48394834D01*
X87800654Y-48392000D01*
X87862455Y-48392000D01*
X87862457Y-48392000D01*
X88015184Y-48351077D01*
X88152116Y-48272020D01*
X88263920Y-48160216D01*
X88342977Y-48023284D01*
X88383900Y-47870557D01*
X88383900Y-47712443D01*
X88342977Y-47559716D01*
X88272301Y-47437300D01*
X88263924Y-47422790D01*
X88263918Y-47422782D01*
X88152117Y-47310981D01*
X88152109Y-47310975D01*
X88015190Y-47231926D01*
X88015186Y-47231924D01*
X88015184Y-47231923D01*
X87862457Y-47191000D01*
X87704343Y-47191000D01*
X87551616Y-47231923D01*
X87551609Y-47231926D01*
X87414690Y-47310975D01*
X87414682Y-47310981D01*
X87302881Y-47422782D01*
X87302875Y-47422790D01*
X87223826Y-47559709D01*
X87223823Y-47559716D01*
X87182900Y-47712443D01*
X87182900Y-47774245D01*
X87163215Y-47841284D01*
X87146581Y-47861926D01*
X77792926Y-57215581D01*
X77731603Y-57249066D01*
X77705245Y-57251900D01*
X46045598Y-57251900D01*
X45978559Y-57232215D01*
X45957917Y-57215581D01*
X45914217Y-57171881D01*
X45914209Y-57171875D01*
X45777290Y-57092826D01*
X45777286Y-57092824D01*
X45777284Y-57092823D01*
X45624557Y-57051900D01*
X45466443Y-57051900D01*
X45313716Y-57092823D01*
X45313709Y-57092826D01*
X45176790Y-57171875D01*
X45176782Y-57171881D01*
X45133083Y-57215581D01*
X45071760Y-57249066D01*
X45045402Y-57251900D01*
X15270755Y-57251900D01*
X15241314Y-57243255D01*
X15211328Y-57236732D01*
X15206312Y-57232977D01*
X15203716Y-57232215D01*
X15183074Y-57215581D01*
X15010119Y-57042626D01*
X14976634Y-56981303D01*
X14973800Y-56954945D01*
X14973800Y-56893145D01*
X14973800Y-56893143D01*
X14932877Y-56740416D01*
X14932873Y-56740409D01*
X14853824Y-56603490D01*
X14853818Y-56603482D01*
X14742017Y-56491681D01*
X14742009Y-56491675D01*
X14605090Y-56412626D01*
X14605086Y-56412624D01*
X14605084Y-56412623D01*
X14452357Y-56371700D01*
X14452356Y-56371700D01*
X14390554Y-56371700D01*
X14323515Y-56352015D01*
X14302873Y-56335381D01*
X12823319Y-54855826D01*
X12789834Y-54794503D01*
X12787000Y-54768145D01*
X12787000Y-51594198D01*
X12806685Y-51527159D01*
X12823319Y-51506517D01*
X12867020Y-51462816D01*
X12946077Y-51325884D01*
X12987000Y-51173157D01*
X12987000Y-51015043D01*
X12946077Y-50862316D01*
X12885020Y-50756561D01*
X12867024Y-50725390D01*
X12867018Y-50725382D01*
X12755217Y-50613581D01*
X12755209Y-50613575D01*
X12618290Y-50534526D01*
X12618286Y-50534524D01*
X12618284Y-50534523D01*
X12465557Y-50493600D01*
X12307443Y-50493600D01*
X12154716Y-50534523D01*
X12154709Y-50534526D01*
X12017790Y-50613575D01*
X12017782Y-50613581D01*
X11905981Y-50725382D01*
X11905975Y-50725390D01*
X11826926Y-50862309D01*
X11826923Y-50862316D01*
X11786000Y-51015043D01*
X500500Y-51015043D01*
X500500Y-43866373D01*
X2996400Y-43866373D01*
X2996400Y-44364573D01*
X2996400Y-44470027D01*
X3001498Y-44489053D01*
X3023693Y-44571889D01*
X3041843Y-44603325D01*
X3076420Y-44663213D01*
X4599518Y-46186310D01*
X4599520Y-46186313D01*
X4674087Y-46260880D01*
X4743385Y-46300889D01*
X4765411Y-46313606D01*
X4765412Y-46313606D01*
X4765413Y-46313607D01*
X4867273Y-46340901D01*
X4867275Y-46340901D01*
X4980323Y-46340901D01*
X4980339Y-46340900D01*
X6767702Y-46340900D01*
X6834741Y-46360585D01*
X6855383Y-46377219D01*
X6899084Y-46420920D01*
X6899086Y-46420921D01*
X6899090Y-46420924D01*
X7036009Y-46499973D01*
X7036016Y-46499977D01*
X7188743Y-46540900D01*
X7188745Y-46540900D01*
X7346855Y-46540900D01*
X7346857Y-46540900D01*
X7499584Y-46499977D01*
X7636516Y-46420920D01*
X7748320Y-46309116D01*
X7827377Y-46172184D01*
X7868300Y-46019457D01*
X7868300Y-45861343D01*
X18921100Y-45861343D01*
X18921100Y-46019456D01*
X18962023Y-46172183D01*
X18962026Y-46172190D01*
X19041075Y-46309109D01*
X19041079Y-46309114D01*
X19041080Y-46309116D01*
X19152884Y-46420920D01*
X19152886Y-46420921D01*
X19152890Y-46420924D01*
X19289809Y-46499973D01*
X19289816Y-46499977D01*
X19442543Y-46540900D01*
X19504345Y-46540900D01*
X19571384Y-46560585D01*
X19592026Y-46577219D01*
X21173087Y-48158280D01*
X21264412Y-48211007D01*
X21366273Y-48238300D01*
X21471727Y-48238300D01*
X57638402Y-48238300D01*
X57705441Y-48257985D01*
X57726083Y-48274619D01*
X57769784Y-48318320D01*
X57769786Y-48318321D01*
X57769790Y-48318324D01*
X57826521Y-48351077D01*
X57906716Y-48397377D01*
X58059443Y-48438300D01*
X58059445Y-48438300D01*
X58217555Y-48438300D01*
X58217557Y-48438300D01*
X58370284Y-48397377D01*
X58507216Y-48318320D01*
X58619020Y-48206516D01*
X58698077Y-48069584D01*
X58739000Y-47916857D01*
X58739000Y-47758743D01*
X58698077Y-47606016D01*
X58658808Y-47537999D01*
X58642337Y-47470099D01*
X58665189Y-47404072D01*
X58720111Y-47360882D01*
X58766196Y-47352000D01*
X83849725Y-47352000D01*
X83849727Y-47352000D01*
X83951588Y-47324707D01*
X84042913Y-47271980D01*
X84527774Y-46787119D01*
X84589097Y-46753634D01*
X84615455Y-46750800D01*
X84677255Y-46750800D01*
X84677257Y-46750800D01*
X84829984Y-46709877D01*
X84966916Y-46630820D01*
X85078720Y-46519016D01*
X85157777Y-46382084D01*
X85198700Y-46229357D01*
X85198700Y-46071243D01*
X85157777Y-45918516D01*
X85124770Y-45861345D01*
X85078724Y-45781590D01*
X85078718Y-45781582D01*
X84966917Y-45669781D01*
X84966912Y-45669777D01*
X84955324Y-45663087D01*
X84907108Y-45612520D01*
X84893885Y-45543913D01*
X84919853Y-45479048D01*
X84976767Y-45438520D01*
X85017324Y-45431700D01*
X87798125Y-45431700D01*
X87798127Y-45431700D01*
X87899988Y-45404407D01*
X87991313Y-45351680D01*
X97319578Y-36023414D01*
X97380899Y-35989931D01*
X97450591Y-35994915D01*
X97476141Y-36007991D01*
X97573453Y-36073013D01*
X97573455Y-36073014D01*
X97573459Y-36073016D01*
X97696363Y-36123923D01*
X97737334Y-36140894D01*
X97737336Y-36140894D01*
X97737341Y-36140896D01*
X97911304Y-36175499D01*
X97911307Y-36175500D01*
X97911309Y-36175500D01*
X98088693Y-36175500D01*
X98088694Y-36175499D01*
X98162502Y-36160818D01*
X98262658Y-36140896D01*
X98262661Y-36140894D01*
X98262666Y-36140894D01*
X98426547Y-36073013D01*
X98574035Y-35974464D01*
X98699464Y-35849035D01*
X98798013Y-35701547D01*
X98865894Y-35537666D01*
X98869508Y-35519500D01*
X98900499Y-35363695D01*
X98900500Y-35363693D01*
X98900500Y-34636306D01*
X98900499Y-34636304D01*
X98865896Y-34462341D01*
X98865893Y-34462332D01*
X98798016Y-34298459D01*
X98798009Y-34298446D01*
X98699464Y-34150965D01*
X98699461Y-34150961D01*
X98574038Y-34025538D01*
X98574034Y-34025535D01*
X98426553Y-33926990D01*
X98426540Y-33926983D01*
X98262667Y-33859106D01*
X98262658Y-33859103D01*
X98088694Y-33824500D01*
X98088691Y-33824500D01*
X97911309Y-33824500D01*
X97911306Y-33824500D01*
X97737341Y-33859103D01*
X97737332Y-33859106D01*
X97573459Y-33926983D01*
X97573446Y-33926990D01*
X97425965Y-34025535D01*
X97425961Y-34025538D01*
X97300538Y-34150961D01*
X97300535Y-34150965D01*
X97201990Y-34298446D01*
X97201983Y-34298459D01*
X97139061Y-34450371D01*
X97095221Y-34504775D01*
X97028927Y-34526840D01*
X96961227Y-34509561D01*
X96913616Y-34458424D01*
X96900500Y-34402919D01*
X96900500Y-34331903D01*
X96900500Y-34331898D01*
X96889877Y-34243436D01*
X96834361Y-34102658D01*
X96834360Y-34102657D01*
X96834360Y-34102656D01*
X96742922Y-33982077D01*
X96622343Y-33890639D01*
X96481561Y-33835122D01*
X96435926Y-33829642D01*
X96393102Y-33824500D01*
X95606898Y-33824500D01*
X95567853Y-33829188D01*
X95518438Y-33835122D01*
X95377656Y-33890639D01*
X95257077Y-33982077D01*
X95165639Y-34102656D01*
X95110122Y-34243438D01*
X95104461Y-34290583D01*
X95099500Y-34331898D01*
X95099500Y-34331903D01*
X95099500Y-35282745D01*
X95079815Y-35349784D01*
X95063181Y-35370426D01*
X94261126Y-36172481D01*
X94199803Y-36205966D01*
X94173445Y-36208800D01*
X81853598Y-36208800D01*
X81786559Y-36189115D01*
X81765917Y-36172481D01*
X81722217Y-36128781D01*
X81722209Y-36128775D01*
X81585290Y-36049726D01*
X81585286Y-36049724D01*
X81585284Y-36049723D01*
X81432557Y-36008800D01*
X81274443Y-36008800D01*
X81121716Y-36049723D01*
X81121709Y-36049726D01*
X80984790Y-36128775D01*
X80984786Y-36128778D01*
X80874009Y-36239555D01*
X80812686Y-36273039D01*
X80742994Y-36268055D01*
X80698647Y-36239554D01*
X78197415Y-33738322D01*
X78197413Y-33738320D01*
X78151750Y-33711956D01*
X78106089Y-33685593D01*
X78055157Y-33671946D01*
X78004227Y-33658300D01*
X78004226Y-33658300D01*
X43553398Y-33658300D01*
X43486359Y-33638615D01*
X43465717Y-33621981D01*
X43422017Y-33578281D01*
X43422009Y-33578275D01*
X43285090Y-33499226D01*
X43285086Y-33499224D01*
X43285084Y-33499223D01*
X43132357Y-33458300D01*
X42974243Y-33458300D01*
X42821516Y-33499223D01*
X42821509Y-33499226D01*
X42684590Y-33578275D01*
X42684582Y-33578281D01*
X42572781Y-33690082D01*
X42572775Y-33690090D01*
X42493726Y-33827009D01*
X42493723Y-33827016D01*
X42452800Y-33979743D01*
X42452800Y-34137857D01*
X42493183Y-34288566D01*
X42493723Y-34290583D01*
X42493726Y-34290590D01*
X42572775Y-34427509D01*
X42572779Y-34427514D01*
X42572780Y-34427516D01*
X42684584Y-34539320D01*
X42684586Y-34539321D01*
X42684590Y-34539324D01*
X42821509Y-34618373D01*
X42821516Y-34618377D01*
X42974243Y-34659300D01*
X42974245Y-34659300D01*
X43132355Y-34659300D01*
X43132357Y-34659300D01*
X43285084Y-34618377D01*
X43422016Y-34539320D01*
X43465717Y-34495619D01*
X43527040Y-34462134D01*
X43553398Y-34459300D01*
X77734245Y-34459300D01*
X77801284Y-34478985D01*
X77821926Y-34495619D01*
X79015826Y-35689519D01*
X79049311Y-35750842D01*
X79044327Y-35820534D01*
X79002455Y-35876467D01*
X78936991Y-35900884D01*
X78928145Y-35901200D01*
X43903698Y-35901200D01*
X43836659Y-35881515D01*
X43816017Y-35864881D01*
X43772317Y-35821181D01*
X43772309Y-35821175D01*
X43635390Y-35742126D01*
X43635386Y-35742124D01*
X43635384Y-35742123D01*
X43482657Y-35701200D01*
X43324543Y-35701200D01*
X43171816Y-35742123D01*
X43171809Y-35742126D01*
X43034890Y-35821175D01*
X43034882Y-35821181D01*
X42923081Y-35932982D01*
X42923075Y-35932990D01*
X42844026Y-36069909D01*
X42844023Y-36069916D01*
X42803100Y-36222643D01*
X42803100Y-36380757D01*
X42804822Y-36387181D01*
X42844023Y-36533483D01*
X42844026Y-36533490D01*
X42923075Y-36670409D01*
X42923079Y-36670414D01*
X42923080Y-36670416D01*
X43034884Y-36782220D01*
X43034886Y-36782221D01*
X43034890Y-36782224D01*
X43171809Y-36861273D01*
X43171816Y-36861277D01*
X43324543Y-36902200D01*
X43324545Y-36902200D01*
X43482655Y-36902200D01*
X43482657Y-36902200D01*
X43635384Y-36861277D01*
X43772316Y-36782220D01*
X43816017Y-36738519D01*
X43877340Y-36705034D01*
X43903698Y-36702200D01*
X78756745Y-36702200D01*
X78823784Y-36721885D01*
X78844426Y-36738519D01*
X83237881Y-41131974D01*
X83271366Y-41193297D01*
X83274200Y-41219655D01*
X83274200Y-41281457D01*
X83310085Y-41415380D01*
X83315123Y-41434183D01*
X83315126Y-41434190D01*
X83394175Y-41571109D01*
X83394179Y-41571114D01*
X83394180Y-41571116D01*
X83505984Y-41682920D01*
X83505986Y-41682921D01*
X83505990Y-41682924D01*
X83586118Y-41729185D01*
X83642916Y-41761977D01*
X83795643Y-41802900D01*
X83795645Y-41802900D01*
X83953755Y-41802900D01*
X83953757Y-41802900D01*
X84106484Y-41761977D01*
X84243416Y-41682920D01*
X84355220Y-41571116D01*
X84434277Y-41434184D01*
X84475200Y-41281457D01*
X84475200Y-41123343D01*
X84434277Y-40970616D01*
X84434273Y-40970609D01*
X84355224Y-40833690D01*
X84355218Y-40833682D01*
X84243417Y-40721881D01*
X84243409Y-40721875D01*
X84106490Y-40642825D01*
X84104810Y-40642130D01*
X84103610Y-40641163D01*
X84099446Y-40638759D01*
X84099820Y-40638109D01*
X84050406Y-40598289D01*
X84028340Y-40531995D01*
X84045618Y-40464296D01*
X84090260Y-40420181D01*
X84160516Y-40379620D01*
X84272320Y-40267816D01*
X84351377Y-40130884D01*
X84392300Y-39978157D01*
X84392300Y-39820043D01*
X84351377Y-39667316D01*
X84351373Y-39667309D01*
X84272324Y-39530390D01*
X84272318Y-39530382D01*
X84160517Y-39418581D01*
X84160509Y-39418575D01*
X84023590Y-39339526D01*
X84023586Y-39339524D01*
X84023584Y-39339523D01*
X83870857Y-39298600D01*
X83870856Y-39298600D01*
X83809055Y-39298600D01*
X83742016Y-39278915D01*
X83721374Y-39262281D01*
X81723245Y-37264152D01*
X81718906Y-37256206D01*
X81711658Y-37250780D01*
X81702423Y-37226020D01*
X81689760Y-37202829D01*
X81690405Y-37193798D01*
X81687242Y-37185316D01*
X81692858Y-37159497D01*
X81694744Y-37133137D01*
X81700563Y-37124081D01*
X81702095Y-37117043D01*
X81723243Y-37088792D01*
X81765918Y-37046118D01*
X81827241Y-37012633D01*
X81853598Y-37009800D01*
X94443425Y-37009800D01*
X94443427Y-37009800D01*
X94545288Y-36982507D01*
X94636613Y-36929780D01*
X95377074Y-36189317D01*
X95438395Y-36155834D01*
X95508086Y-36160818D01*
X95510211Y-36161633D01*
X95518436Y-36164877D01*
X95606898Y-36175500D01*
X95735345Y-36175500D01*
X95802384Y-36195185D01*
X95848139Y-36247989D01*
X95858083Y-36317147D01*
X95829058Y-36380703D01*
X95823026Y-36387181D01*
X87615826Y-44594381D01*
X87554503Y-44627866D01*
X87528145Y-44630700D01*
X85079650Y-44630700D01*
X85012611Y-44611015D01*
X84966856Y-44558211D01*
X84956912Y-44489053D01*
X84967201Y-44459312D01*
X84965466Y-44458594D01*
X84968572Y-44451092D01*
X84968577Y-44451084D01*
X85009500Y-44298357D01*
X85009500Y-44140243D01*
X84968577Y-43987516D01*
X84968573Y-43987509D01*
X84889524Y-43850590D01*
X84889518Y-43850582D01*
X84777717Y-43738781D01*
X84777709Y-43738775D01*
X84640790Y-43659726D01*
X84640786Y-43659724D01*
X84640784Y-43659723D01*
X84488057Y-43618800D01*
X84488056Y-43618800D01*
X84426255Y-43618800D01*
X84359216Y-43599115D01*
X84338574Y-43582481D01*
X83713915Y-42957822D01*
X83713913Y-42957820D01*
X83668250Y-42931456D01*
X83622589Y-42905093D01*
X83555275Y-42887057D01*
X83520727Y-42877800D01*
X83520726Y-42877800D01*
X78330298Y-42877800D01*
X78263259Y-42858115D01*
X78242617Y-42841481D01*
X78198917Y-42797781D01*
X78198909Y-42797775D01*
X78061990Y-42718726D01*
X78061986Y-42718724D01*
X78061984Y-42718723D01*
X77909257Y-42677800D01*
X77751143Y-42677800D01*
X77598416Y-42718723D01*
X77598409Y-42718726D01*
X77461490Y-42797775D01*
X77461482Y-42797781D01*
X77417783Y-42841481D01*
X77356460Y-42874966D01*
X77330102Y-42877800D01*
X61144698Y-42877800D01*
X61077659Y-42858115D01*
X61057017Y-42841481D01*
X61013317Y-42797781D01*
X61013309Y-42797775D01*
X60876390Y-42718726D01*
X60876386Y-42718724D01*
X60876384Y-42718723D01*
X60723657Y-42677800D01*
X60565543Y-42677800D01*
X60412816Y-42718723D01*
X60412809Y-42718726D01*
X60275890Y-42797775D01*
X60275882Y-42797781D01*
X60164081Y-42909582D01*
X60164075Y-42909590D01*
X60085026Y-43046509D01*
X60085023Y-43046516D01*
X60044100Y-43199243D01*
X60044100Y-43355600D01*
X60024415Y-43422639D01*
X59971611Y-43468394D01*
X59920100Y-43479600D01*
X46810055Y-43479600D01*
X46743016Y-43459915D01*
X46722374Y-43443281D01*
X46157519Y-42878426D01*
X46124034Y-42817103D01*
X46121200Y-42790745D01*
X46121200Y-42728945D01*
X46121200Y-42728943D01*
X46080277Y-42576216D01*
X46034195Y-42496399D01*
X46001224Y-42439290D01*
X46001218Y-42439282D01*
X45889417Y-42327481D01*
X45889409Y-42327475D01*
X45752490Y-42248426D01*
X45752486Y-42248424D01*
X45752484Y-42248423D01*
X45599757Y-42207500D01*
X45441643Y-42207500D01*
X45288916Y-42248423D01*
X45288909Y-42248426D01*
X45151990Y-42327475D01*
X45151982Y-42327481D01*
X45040181Y-42439282D01*
X45040175Y-42439290D01*
X44961126Y-42576209D01*
X44961123Y-42576214D01*
X44921379Y-42724543D01*
X44885014Y-42784203D01*
X44822167Y-42814732D01*
X44752791Y-42806437D01*
X44713923Y-42780130D01*
X43900119Y-41966326D01*
X43866634Y-41905003D01*
X43863800Y-41878645D01*
X43863800Y-41816845D01*
X43863800Y-41816843D01*
X43822877Y-41664116D01*
X43776920Y-41584515D01*
X43743824Y-41527190D01*
X43743818Y-41527182D01*
X43632017Y-41415381D01*
X43632009Y-41415375D01*
X43495090Y-41336326D01*
X43495086Y-41336324D01*
X43495084Y-41336323D01*
X43342357Y-41295400D01*
X43184243Y-41295400D01*
X43031516Y-41336323D01*
X43031509Y-41336326D01*
X42894590Y-41415375D01*
X42894582Y-41415381D01*
X42782781Y-41527182D01*
X42782775Y-41527190D01*
X42703726Y-41664109D01*
X42703723Y-41664116D01*
X42662800Y-41816843D01*
X42662800Y-41974957D01*
X42691953Y-42083755D01*
X42703723Y-42127683D01*
X42703726Y-42127690D01*
X42782775Y-42264609D01*
X42782779Y-42264614D01*
X42782780Y-42264616D01*
X42894584Y-42376420D01*
X42894586Y-42376421D01*
X42894590Y-42376424D01*
X43003479Y-42439290D01*
X43031516Y-42455477D01*
X43184243Y-42496400D01*
X43246045Y-42496400D01*
X43313084Y-42516085D01*
X43333726Y-42532719D01*
X48026626Y-47225619D01*
X48060111Y-47286942D01*
X48055127Y-47356634D01*
X48013255Y-47412567D01*
X47947791Y-47436984D01*
X47938945Y-47437300D01*
X21636255Y-47437300D01*
X21569216Y-47417615D01*
X21548574Y-47400981D01*
X20158419Y-46010826D01*
X20124934Y-45949503D01*
X20122100Y-45923145D01*
X20122100Y-45861345D01*
X20122100Y-45861343D01*
X20081177Y-45708616D01*
X20058755Y-45669780D01*
X20002124Y-45571690D01*
X20002118Y-45571682D01*
X19890317Y-45459881D01*
X19890309Y-45459875D01*
X19753390Y-45380826D01*
X19753386Y-45380824D01*
X19753384Y-45380823D01*
X19600657Y-45339900D01*
X19442543Y-45339900D01*
X19289816Y-45380823D01*
X19289809Y-45380826D01*
X19152890Y-45459875D01*
X19152882Y-45459881D01*
X19041081Y-45571682D01*
X19041075Y-45571690D01*
X18962026Y-45708609D01*
X18962023Y-45708616D01*
X18921100Y-45861343D01*
X7868300Y-45861343D01*
X7827377Y-45708616D01*
X7804955Y-45669780D01*
X7748324Y-45571690D01*
X7748318Y-45571682D01*
X7636517Y-45459881D01*
X7636509Y-45459875D01*
X7499590Y-45380826D01*
X7499586Y-45380824D01*
X7499584Y-45380823D01*
X7346857Y-45339900D01*
X7188743Y-45339900D01*
X7036016Y-45380823D01*
X7036009Y-45380826D01*
X6899090Y-45459875D01*
X6899082Y-45459881D01*
X6855383Y-45503581D01*
X6794060Y-45537066D01*
X6767702Y-45539900D01*
X5137254Y-45539900D01*
X5070215Y-45520215D01*
X5049573Y-45503581D01*
X4368695Y-44822702D01*
X4364356Y-44814756D01*
X4357108Y-44809330D01*
X4347873Y-44784570D01*
X4335210Y-44761379D01*
X4335855Y-44752348D01*
X4332692Y-44743866D01*
X4338308Y-44718047D01*
X4340194Y-44691687D01*
X4346013Y-44682631D01*
X4347545Y-44675593D01*
X4368693Y-44647342D01*
X4411018Y-44605018D01*
X4472341Y-44571533D01*
X4498698Y-44568700D01*
X34784445Y-44568700D01*
X34851484Y-44588385D01*
X34872126Y-44605019D01*
X35018781Y-44751674D01*
X35052266Y-44812997D01*
X35055100Y-44839355D01*
X35055100Y-44901157D01*
X35088778Y-45026843D01*
X35096023Y-45053883D01*
X35096026Y-45053890D01*
X35175075Y-45190809D01*
X35175079Y-45190814D01*
X35175080Y-45190816D01*
X35286884Y-45302620D01*
X35286886Y-45302621D01*
X35286890Y-45302624D01*
X35351455Y-45339900D01*
X35423816Y-45381677D01*
X35576543Y-45422600D01*
X35576545Y-45422600D01*
X35734655Y-45422600D01*
X35734657Y-45422600D01*
X35887384Y-45381677D01*
X36024316Y-45302620D01*
X36126619Y-45200317D01*
X36146055Y-45189704D01*
X36162789Y-45175204D01*
X36176120Y-45173287D01*
X36187942Y-45166832D01*
X36210028Y-45168411D01*
X36231947Y-45165260D01*
X36244198Y-45170855D01*
X36257634Y-45171816D01*
X36275360Y-45185086D01*
X36295503Y-45194285D01*
X36302785Y-45205616D01*
X36313567Y-45213688D01*
X36321304Y-45234433D01*
X36333277Y-45253063D01*
X36336428Y-45274981D01*
X36337984Y-45279152D01*
X36338300Y-45287998D01*
X36338300Y-45440302D01*
X36318615Y-45507341D01*
X36301981Y-45527983D01*
X36258281Y-45571682D01*
X36258275Y-45571690D01*
X36179226Y-45708609D01*
X36179223Y-45708616D01*
X36138300Y-45861343D01*
X36138300Y-46019456D01*
X36179223Y-46172183D01*
X36179226Y-46172190D01*
X36258275Y-46309109D01*
X36258279Y-46309114D01*
X36258280Y-46309116D01*
X36370084Y-46420920D01*
X36370086Y-46420921D01*
X36370090Y-46420924D01*
X36507009Y-46499973D01*
X36507016Y-46499977D01*
X36659743Y-46540900D01*
X36659745Y-46540900D01*
X36817855Y-46540900D01*
X36817857Y-46540900D01*
X36970584Y-46499977D01*
X37107516Y-46420920D01*
X37219320Y-46309116D01*
X37298377Y-46172184D01*
X37339300Y-46019457D01*
X37339300Y-45861343D01*
X37298377Y-45708616D01*
X37275955Y-45669780D01*
X37219324Y-45571690D01*
X37219318Y-45571682D01*
X37175619Y-45527983D01*
X37142134Y-45466660D01*
X37139300Y-45440302D01*
X37139300Y-45001675D01*
X37139300Y-45001673D01*
X37120551Y-44931700D01*
X37120551Y-44931698D01*
X37112008Y-44899814D01*
X37097167Y-44874109D01*
X37059280Y-44808487D01*
X35484113Y-43233320D01*
X35438450Y-43206956D01*
X35392789Y-43180593D01*
X35341857Y-43166946D01*
X35290927Y-43153300D01*
X3814927Y-43153300D01*
X3709473Y-43153300D01*
X3607610Y-43180593D01*
X3516287Y-43233320D01*
X3516284Y-43233322D01*
X3076422Y-43673184D01*
X3076420Y-43673187D01*
X3023694Y-43764509D01*
X3023693Y-43764511D01*
X3023693Y-43764512D01*
X3014318Y-43799501D01*
X2996400Y-43866373D01*
X500500Y-43866373D01*
X500500Y-42164881D01*
X520185Y-42097842D01*
X555610Y-42061779D01*
X614854Y-42022192D01*
X690289Y-41971789D01*
X801789Y-41860289D01*
X889394Y-41729179D01*
X949737Y-41583497D01*
X980500Y-41428842D01*
X980500Y-40671158D01*
X980500Y-40671155D01*
X980499Y-40671153D01*
X8019500Y-40671153D01*
X8019500Y-41428846D01*
X8050261Y-41583489D01*
X8050264Y-41583501D01*
X8110602Y-41729172D01*
X8110609Y-41729185D01*
X8198210Y-41860288D01*
X8198213Y-41860292D01*
X8309707Y-41971786D01*
X8309711Y-41971789D01*
X8440814Y-42059390D01*
X8440827Y-42059397D01*
X8533643Y-42097842D01*
X8586503Y-42119737D01*
X8741153Y-42150499D01*
X8741156Y-42150500D01*
X8741158Y-42150500D01*
X8898844Y-42150500D01*
X8898845Y-42150499D01*
X9053497Y-42119737D01*
X9199179Y-42059394D01*
X9330289Y-41971789D01*
X9441789Y-41860289D01*
X9529394Y-41729179D01*
X9589737Y-41583497D01*
X9620500Y-41428842D01*
X9620500Y-40671158D01*
X9620500Y-40671155D01*
X9620499Y-40671153D01*
X9613926Y-40638109D01*
X9589737Y-40516503D01*
X9582736Y-40499600D01*
X9529397Y-40370827D01*
X9529390Y-40370814D01*
X9441789Y-40239711D01*
X9441786Y-40239707D01*
X9330292Y-40128213D01*
X9330288Y-40128210D01*
X9199185Y-40040609D01*
X9199172Y-40040602D01*
X9053501Y-39980264D01*
X9053489Y-39980261D01*
X8898845Y-39949500D01*
X8898842Y-39949500D01*
X8741158Y-39949500D01*
X8741155Y-39949500D01*
X8586510Y-39980261D01*
X8586498Y-39980264D01*
X8440827Y-40040602D01*
X8440814Y-40040609D01*
X8309711Y-40128210D01*
X8309707Y-40128213D01*
X8198213Y-40239707D01*
X8198210Y-40239711D01*
X8110609Y-40370814D01*
X8110602Y-40370827D01*
X8050264Y-40516498D01*
X8050261Y-40516510D01*
X8019500Y-40671153D01*
X980499Y-40671153D01*
X973926Y-40638109D01*
X949737Y-40516503D01*
X942736Y-40499600D01*
X889397Y-40370827D01*
X889390Y-40370814D01*
X801789Y-40239711D01*
X801786Y-40239707D01*
X690292Y-40128213D01*
X690288Y-40128210D01*
X555609Y-40038219D01*
X510804Y-39984606D01*
X500500Y-39935117D01*
X500500Y-38452491D01*
X520185Y-38385452D01*
X572989Y-38339697D01*
X577048Y-38337930D01*
X653672Y-38306192D01*
X653684Y-38306185D01*
X710617Y-38268143D01*
X42452800Y-38268143D01*
X42452800Y-38426257D01*
X42459830Y-38452491D01*
X42493723Y-38578983D01*
X42493726Y-38578990D01*
X42572775Y-38715909D01*
X42572779Y-38715914D01*
X42572780Y-38715916D01*
X42684584Y-38827720D01*
X42684586Y-38827721D01*
X42684590Y-38827724D01*
X42821509Y-38906773D01*
X42821516Y-38906777D01*
X42974243Y-38947700D01*
X43036045Y-38947700D01*
X43103084Y-38967385D01*
X43123726Y-38984019D01*
X46464887Y-42325180D01*
X46556212Y-42377907D01*
X46658073Y-42405200D01*
X78935602Y-42405200D01*
X79002641Y-42424885D01*
X79023283Y-42441519D01*
X79066984Y-42485220D01*
X79066986Y-42485221D01*
X79066990Y-42485224D01*
X79120444Y-42516085D01*
X79203916Y-42564277D01*
X79356643Y-42605200D01*
X79356645Y-42605200D01*
X79514755Y-42605200D01*
X79514757Y-42605200D01*
X79667484Y-42564277D01*
X79804416Y-42485220D01*
X79916220Y-42373416D01*
X79995277Y-42236484D01*
X80036200Y-42083757D01*
X80036200Y-41925643D01*
X79995277Y-41772916D01*
X79994991Y-41772421D01*
X79916224Y-41635990D01*
X79916218Y-41635982D01*
X79804417Y-41524181D01*
X79804409Y-41524175D01*
X79667490Y-41445126D01*
X79667486Y-41445124D01*
X79667484Y-41445123D01*
X79514757Y-41404200D01*
X79356643Y-41404200D01*
X79203916Y-41445123D01*
X79203909Y-41445126D01*
X79066990Y-41524175D01*
X79066982Y-41524181D01*
X79023283Y-41567881D01*
X78961960Y-41601366D01*
X78935602Y-41604200D01*
X46928055Y-41604200D01*
X46861016Y-41584515D01*
X46840374Y-41567881D01*
X43690119Y-38417626D01*
X43656634Y-38356303D01*
X43653800Y-38329945D01*
X43653800Y-38268145D01*
X43653800Y-38268143D01*
X43612877Y-38115416D01*
X43570367Y-38041786D01*
X43533824Y-37978490D01*
X43533818Y-37978482D01*
X43422017Y-37866681D01*
X43422009Y-37866675D01*
X43285090Y-37787626D01*
X43285086Y-37787624D01*
X43285084Y-37787623D01*
X43132357Y-37746700D01*
X42974243Y-37746700D01*
X42821516Y-37787623D01*
X42821509Y-37787626D01*
X42684590Y-37866675D01*
X42684582Y-37866681D01*
X42572781Y-37978482D01*
X42572775Y-37978490D01*
X42493726Y-38115409D01*
X42493723Y-38115416D01*
X42452800Y-38268143D01*
X710617Y-38268143D01*
X817462Y-38196751D01*
X817466Y-38196748D01*
X956748Y-38057466D01*
X956751Y-38057462D01*
X1069574Y-37888613D01*
X1071007Y-37889570D01*
X1114198Y-37845580D01*
X1182332Y-37830103D01*
X1248018Y-37853919D01*
X1250089Y-37855697D01*
X1250189Y-37855568D01*
X1256630Y-37860510D01*
X1256635Y-37860515D01*
X1306960Y-37889570D01*
X1377486Y-37930289D01*
X1387865Y-37936281D01*
X1534234Y-37975500D01*
X1534236Y-37975500D01*
X1685764Y-37975500D01*
X1685766Y-37975500D01*
X1832135Y-37936281D01*
X1963365Y-37860515D01*
X2070515Y-37753365D01*
X2146281Y-37622135D01*
X2185500Y-37475766D01*
X2185500Y-37324234D01*
X6814500Y-37324234D01*
X6814500Y-37475765D01*
X6853719Y-37622136D01*
X6871821Y-37653489D01*
X6929485Y-37753365D01*
X7036635Y-37860515D01*
X7086960Y-37889570D01*
X7157486Y-37930289D01*
X7167865Y-37936281D01*
X7314234Y-37975500D01*
X7314236Y-37975500D01*
X7465764Y-37975500D01*
X7465766Y-37975500D01*
X7612135Y-37936281D01*
X7743365Y-37860515D01*
X7850515Y-37753365D01*
X7865183Y-37727958D01*
X7915748Y-37679743D01*
X7984355Y-37666519D01*
X8049220Y-37692486D01*
X8087131Y-37742506D01*
X8110602Y-37799172D01*
X8110609Y-37799185D01*
X8198210Y-37930288D01*
X8198213Y-37930292D01*
X8309707Y-38041786D01*
X8309711Y-38041789D01*
X8440814Y-38129390D01*
X8440827Y-38129397D01*
X8586498Y-38189735D01*
X8586503Y-38189737D01*
X8741153Y-38220499D01*
X8741156Y-38220500D01*
X8741158Y-38220500D01*
X8898844Y-38220500D01*
X8898845Y-38220499D01*
X9053497Y-38189737D01*
X9102481Y-38169447D01*
X9160405Y-38145455D01*
X9199172Y-38129397D01*
X9199172Y-38129396D01*
X9199179Y-38129394D01*
X9330289Y-38041789D01*
X9441789Y-37930289D01*
X9529394Y-37799179D01*
X9589737Y-37653497D01*
X9620500Y-37498842D01*
X9620500Y-36241158D01*
X9620500Y-36241155D01*
X9620499Y-36241153D01*
X9616591Y-36221508D01*
X9589737Y-36086503D01*
X9584148Y-36073009D01*
X9529397Y-35940827D01*
X9529390Y-35940814D01*
X9441789Y-35809711D01*
X9441786Y-35809707D01*
X9330292Y-35698213D01*
X9330288Y-35698210D01*
X9199185Y-35610609D01*
X9199172Y-35610602D01*
X9053501Y-35550264D01*
X9053489Y-35550261D01*
X8898845Y-35519500D01*
X8898842Y-35519500D01*
X8741158Y-35519500D01*
X8741155Y-35519500D01*
X8586510Y-35550261D01*
X8586498Y-35550264D01*
X8440827Y-35610602D01*
X8440814Y-35610609D01*
X8309711Y-35698210D01*
X8309707Y-35698213D01*
X8198213Y-35809707D01*
X8198210Y-35809711D01*
X8110609Y-35940814D01*
X8110602Y-35940827D01*
X8050264Y-36086498D01*
X8050261Y-36086510D01*
X8019500Y-36241153D01*
X8019500Y-36916258D01*
X7999815Y-36983297D01*
X7947011Y-37029052D01*
X7877853Y-37038996D01*
X7814297Y-37009971D01*
X7807819Y-37003939D01*
X7743367Y-36939487D01*
X7743365Y-36939485D01*
X7677750Y-36901602D01*
X7612136Y-36863719D01*
X7538950Y-36844109D01*
X7465766Y-36824500D01*
X7314234Y-36824500D01*
X7167863Y-36863719D01*
X7036635Y-36939485D01*
X7036632Y-36939487D01*
X6929487Y-37046632D01*
X6929485Y-37046635D01*
X6853719Y-37177863D01*
X6814500Y-37324234D01*
X2185500Y-37324234D01*
X2146281Y-37177865D01*
X2070515Y-37046635D01*
X1963365Y-36939485D01*
X1897750Y-36901602D01*
X1832136Y-36863719D01*
X1758950Y-36844109D01*
X1685766Y-36824500D01*
X1534234Y-36824500D01*
X1387863Y-36863719D01*
X1256635Y-36939485D01*
X1256632Y-36939487D01*
X1149486Y-37046633D01*
X1149482Y-37046638D01*
X1142923Y-37058000D01*
X1092356Y-37106216D01*
X1035536Y-37120000D01*
X624500Y-37120000D01*
X557461Y-37100315D01*
X511706Y-37047511D01*
X500500Y-36996000D01*
X500500Y-36744000D01*
X520185Y-36676961D01*
X572989Y-36631206D01*
X624500Y-36620000D01*
X1180000Y-36620000D01*
X1180000Y-36221508D01*
X1179999Y-36221504D01*
X1141572Y-36028318D01*
X1141569Y-36028306D01*
X1066192Y-35846328D01*
X1066185Y-35846315D01*
X956751Y-35682537D01*
X956748Y-35682533D01*
X817463Y-35543248D01*
X653675Y-35433809D01*
X653671Y-35433807D01*
X577046Y-35402067D01*
X522643Y-35358226D01*
X500579Y-35291931D01*
X500500Y-35287507D01*
X500500Y-34636843D01*
X1598100Y-34636843D01*
X1598100Y-34794957D01*
X1621205Y-34881184D01*
X1639023Y-34947683D01*
X1639026Y-34947690D01*
X1718075Y-35084609D01*
X1718079Y-35084614D01*
X1718080Y-35084616D01*
X1829884Y-35196420D01*
X1829886Y-35196421D01*
X1829890Y-35196424D01*
X1941076Y-35260616D01*
X1966816Y-35275477D01*
X2119543Y-35316400D01*
X2119545Y-35316400D01*
X2277655Y-35316400D01*
X2277657Y-35316400D01*
X2430384Y-35275477D01*
X2567316Y-35196420D01*
X2677517Y-35086219D01*
X2738840Y-35052734D01*
X2765198Y-35049900D01*
X6086402Y-35049900D01*
X6153441Y-35069585D01*
X6174083Y-35086219D01*
X6217784Y-35129920D01*
X6217786Y-35129921D01*
X6217790Y-35129924D01*
X6332963Y-35196418D01*
X6354716Y-35208977D01*
X6507443Y-35249900D01*
X6507445Y-35249900D01*
X6665555Y-35249900D01*
X6665557Y-35249900D01*
X6818284Y-35208977D01*
X6955216Y-35129920D01*
X7067020Y-35018116D01*
X7146077Y-34881184D01*
X7164389Y-34812843D01*
X25171300Y-34812843D01*
X25171300Y-34970957D01*
X25202185Y-35086219D01*
X25212223Y-35123683D01*
X25212226Y-35123690D01*
X25291275Y-35260609D01*
X25291279Y-35260614D01*
X25291280Y-35260616D01*
X25403084Y-35372420D01*
X25403086Y-35372421D01*
X25403090Y-35372424D01*
X25509410Y-35433807D01*
X25540016Y-35451477D01*
X25692743Y-35492400D01*
X25692745Y-35492400D01*
X25850855Y-35492400D01*
X25850857Y-35492400D01*
X26003584Y-35451477D01*
X26140516Y-35372420D01*
X26252320Y-35260616D01*
X26331377Y-35123684D01*
X26372300Y-34970957D01*
X26372300Y-34909155D01*
X26391985Y-34842116D01*
X26408619Y-34821474D01*
X42106674Y-19123419D01*
X42167997Y-19089934D01*
X42194355Y-19087100D01*
X93142725Y-19087100D01*
X93142727Y-19087100D01*
X93244588Y-19059807D01*
X93335913Y-19007080D01*
X97319578Y-15023414D01*
X97380899Y-14989931D01*
X97450591Y-14994915D01*
X97476141Y-15007991D01*
X97573453Y-15073013D01*
X97573455Y-15073014D01*
X97573459Y-15073016D01*
X97696363Y-15123923D01*
X97737334Y-15140894D01*
X97737336Y-15140894D01*
X97737341Y-15140896D01*
X97911304Y-15175499D01*
X97911307Y-15175500D01*
X97911309Y-15175500D01*
X98088693Y-15175500D01*
X98088694Y-15175499D01*
X98146682Y-15163964D01*
X98262658Y-15140896D01*
X98262661Y-15140894D01*
X98262666Y-15140894D01*
X98426547Y-15073013D01*
X98574035Y-14974464D01*
X98699464Y-14849035D01*
X98798013Y-14701547D01*
X98865894Y-14537666D01*
X98900500Y-14363691D01*
X98900500Y-13636309D01*
X98900500Y-13636306D01*
X98900499Y-13636304D01*
X98865896Y-13462341D01*
X98865893Y-13462332D01*
X98798016Y-13298459D01*
X98798009Y-13298446D01*
X98699464Y-13150965D01*
X98699461Y-13150961D01*
X98574038Y-13025538D01*
X98574034Y-13025535D01*
X98426553Y-12926990D01*
X98426540Y-12926983D01*
X98262667Y-12859106D01*
X98262658Y-12859103D01*
X98088694Y-12824500D01*
X98088691Y-12824500D01*
X97911309Y-12824500D01*
X97911306Y-12824500D01*
X97737341Y-12859103D01*
X97737332Y-12859106D01*
X97573459Y-12926983D01*
X97573446Y-12926990D01*
X97425965Y-13025535D01*
X97425961Y-13025538D01*
X97300538Y-13150961D01*
X97300535Y-13150965D01*
X97201990Y-13298446D01*
X97201983Y-13298459D01*
X97139061Y-13450371D01*
X97095221Y-13504775D01*
X97028927Y-13526840D01*
X96961227Y-13509561D01*
X96913616Y-13458424D01*
X96900500Y-13402919D01*
X96900500Y-13331903D01*
X96900500Y-13331898D01*
X96889877Y-13243436D01*
X96834361Y-13102658D01*
X96834360Y-13102657D01*
X96834360Y-13102656D01*
X96742922Y-12982077D01*
X96622343Y-12890639D01*
X96481561Y-12835122D01*
X96435926Y-12829642D01*
X96393102Y-12824500D01*
X95606898Y-12824500D01*
X95567853Y-12829188D01*
X95518438Y-12835122D01*
X95377656Y-12890639D01*
X95257077Y-12982077D01*
X95165639Y-13102656D01*
X95110122Y-13243438D01*
X95104188Y-13292853D01*
X95099500Y-13331898D01*
X95099500Y-14668102D01*
X95103516Y-14701547D01*
X95110122Y-14756561D01*
X95165639Y-14897343D01*
X95257077Y-15017922D01*
X95377656Y-15109360D01*
X95377657Y-15109360D01*
X95377658Y-15109361D01*
X95518436Y-15164877D01*
X95606898Y-15175500D01*
X95735345Y-15175500D01*
X95802384Y-15195185D01*
X95848139Y-15247989D01*
X95858083Y-15317147D01*
X95829058Y-15380703D01*
X95823026Y-15387181D01*
X92960426Y-18249781D01*
X92899103Y-18283266D01*
X92872745Y-18286100D01*
X41924373Y-18286100D01*
X41822510Y-18313393D01*
X41731187Y-18366120D01*
X41731184Y-18366122D01*
X25842226Y-34255081D01*
X25780903Y-34288566D01*
X25754545Y-34291400D01*
X25692743Y-34291400D01*
X25540016Y-34332323D01*
X25540009Y-34332326D01*
X25403090Y-34411375D01*
X25403082Y-34411381D01*
X25291281Y-34523182D01*
X25291275Y-34523190D01*
X25212226Y-34660109D01*
X25212223Y-34660116D01*
X25171300Y-34812843D01*
X7164389Y-34812843D01*
X7187000Y-34728457D01*
X7187000Y-34570343D01*
X7146077Y-34417616D01*
X7105417Y-34347190D01*
X7067024Y-34280690D01*
X7067018Y-34280682D01*
X6955217Y-34168881D01*
X6955209Y-34168875D01*
X6818290Y-34089826D01*
X6818286Y-34089824D01*
X6818284Y-34089823D01*
X6665557Y-34048900D01*
X6507443Y-34048900D01*
X6354716Y-34089823D01*
X6354709Y-34089826D01*
X6217790Y-34168875D01*
X6217782Y-34168881D01*
X6174083Y-34212581D01*
X6112760Y-34246066D01*
X6086402Y-34248900D01*
X2623959Y-34248900D01*
X2561959Y-34232287D01*
X2430386Y-34156324D01*
X2430385Y-34156323D01*
X2430384Y-34156323D01*
X2277657Y-34115400D01*
X2119543Y-34115400D01*
X1966816Y-34156323D01*
X1966809Y-34156326D01*
X1829890Y-34235375D01*
X1829882Y-34235381D01*
X1718081Y-34347182D01*
X1718075Y-34347190D01*
X1639026Y-34484109D01*
X1639023Y-34484116D01*
X1598100Y-34636843D01*
X500500Y-34636843D01*
X500500Y-624500D01*
X520185Y-557461D01*
X572989Y-511706D01*
X624500Y-500500D01*
X99375500Y-500500D01*
X99442539Y-520185D01*
G37*
%TD.AperFunction*%
%TD*%
M02*
