%TF.GenerationSoftware,KiCad,Pcbnew,9.0.7*%
%TF.CreationDate,2026-03-18T21:45:10+09:00*%
%TF.ProjectId,rove_v,726f7665-5f76-42e6-9b69-6361645f7063,rev?*%
%TF.SameCoordinates,Original*%
%TF.FileFunction,Legend,Top*%
%TF.FilePolarity,Positive*%
%FSLAX46Y46*%
G04 Gerber Fmt 4.6, Leading zero omitted, Abs format (unit mm)*
G04 Created by KiCad (PCBNEW 9.0.7) date 2026-03-18 21:45:10*
%MOMM*%
%LPD*%
G01*
G04 APERTURE LIST*
%ADD10C,0.150000*%
%ADD11C,0.100000*%
%ADD12C,0.120000*%
G04 APERTURE END LIST*
D10*
X9750000Y-2686128D02*
X9250000Y-1971842D01*
X8892857Y-2686128D02*
X8892857Y-1186128D01*
X8892857Y-1186128D02*
X9464286Y-1186128D01*
X9464286Y-1186128D02*
X9607143Y-1257557D01*
X9607143Y-1257557D02*
X9678572Y-1328985D01*
X9678572Y-1328985D02*
X9750000Y-1471842D01*
X9750000Y-1471842D02*
X9750000Y-1686128D01*
X9750000Y-1686128D02*
X9678572Y-1828985D01*
X9678572Y-1828985D02*
X9607143Y-1900414D01*
X9607143Y-1900414D02*
X9464286Y-1971842D01*
X9464286Y-1971842D02*
X8892857Y-1971842D01*
X10678572Y-1186128D02*
X10964286Y-1186128D01*
X10964286Y-1186128D02*
X11107143Y-1257557D01*
X11107143Y-1257557D02*
X11250000Y-1400414D01*
X11250000Y-1400414D02*
X11321429Y-1686128D01*
X11321429Y-1686128D02*
X11321429Y-2186128D01*
X11321429Y-2186128D02*
X11250000Y-2471842D01*
X11250000Y-2471842D02*
X11107143Y-2614700D01*
X11107143Y-2614700D02*
X10964286Y-2686128D01*
X10964286Y-2686128D02*
X10678572Y-2686128D01*
X10678572Y-2686128D02*
X10535715Y-2614700D01*
X10535715Y-2614700D02*
X10392857Y-2471842D01*
X10392857Y-2471842D02*
X10321429Y-2186128D01*
X10321429Y-2186128D02*
X10321429Y-1686128D01*
X10321429Y-1686128D02*
X10392857Y-1400414D01*
X10392857Y-1400414D02*
X10535715Y-1257557D01*
X10535715Y-1257557D02*
X10678572Y-1186128D01*
X11750001Y-1186128D02*
X12250001Y-2686128D01*
X12250001Y-2686128D02*
X12750001Y-1186128D01*
X13250000Y-1900414D02*
X13750000Y-1900414D01*
X13964286Y-2686128D02*
X13250000Y-2686128D01*
X13250000Y-2686128D02*
X13250000Y-1186128D01*
X13250000Y-1186128D02*
X13964286Y-1186128D01*
X14607143Y-2114700D02*
X15750001Y-2114700D01*
X16250001Y-1186128D02*
X16750001Y-2686128D01*
X16750001Y-2686128D02*
X17250001Y-1186128D01*
X19750000Y-2686128D02*
X19250000Y-1971842D01*
X18892857Y-2686128D02*
X18892857Y-1186128D01*
X18892857Y-1186128D02*
X19464286Y-1186128D01*
X19464286Y-1186128D02*
X19607143Y-1257557D01*
X19607143Y-1257557D02*
X19678572Y-1328985D01*
X19678572Y-1328985D02*
X19750000Y-1471842D01*
X19750000Y-1471842D02*
X19750000Y-1686128D01*
X19750000Y-1686128D02*
X19678572Y-1828985D01*
X19678572Y-1828985D02*
X19607143Y-1900414D01*
X19607143Y-1900414D02*
X19464286Y-1971842D01*
X19464286Y-1971842D02*
X18892857Y-1971842D01*
X20321429Y-1328985D02*
X20392857Y-1257557D01*
X20392857Y-1257557D02*
X20535715Y-1186128D01*
X20535715Y-1186128D02*
X20892857Y-1186128D01*
X20892857Y-1186128D02*
X21035715Y-1257557D01*
X21035715Y-1257557D02*
X21107143Y-1328985D01*
X21107143Y-1328985D02*
X21178572Y-1471842D01*
X21178572Y-1471842D02*
X21178572Y-1614700D01*
X21178572Y-1614700D02*
X21107143Y-1828985D01*
X21107143Y-1828985D02*
X20250000Y-2686128D01*
X20250000Y-2686128D02*
X21178572Y-2686128D01*
D11*
X11900000Y-38572371D02*
X11700000Y-38286657D01*
X11557143Y-38572371D02*
X11557143Y-37972371D01*
X11557143Y-37972371D02*
X11785714Y-37972371D01*
X11785714Y-37972371D02*
X11842857Y-38000942D01*
X11842857Y-38000942D02*
X11871428Y-38029514D01*
X11871428Y-38029514D02*
X11900000Y-38086657D01*
X11900000Y-38086657D02*
X11900000Y-38172371D01*
X11900000Y-38172371D02*
X11871428Y-38229514D01*
X11871428Y-38229514D02*
X11842857Y-38258085D01*
X11842857Y-38258085D02*
X11785714Y-38286657D01*
X11785714Y-38286657D02*
X11557143Y-38286657D01*
X12414286Y-37972371D02*
X12300000Y-37972371D01*
X12300000Y-37972371D02*
X12242857Y-38000942D01*
X12242857Y-38000942D02*
X12214286Y-38029514D01*
X12214286Y-38029514D02*
X12157143Y-38115228D01*
X12157143Y-38115228D02*
X12128571Y-38229514D01*
X12128571Y-38229514D02*
X12128571Y-38458085D01*
X12128571Y-38458085D02*
X12157143Y-38515228D01*
X12157143Y-38515228D02*
X12185714Y-38543800D01*
X12185714Y-38543800D02*
X12242857Y-38572371D01*
X12242857Y-38572371D02*
X12357143Y-38572371D01*
X12357143Y-38572371D02*
X12414286Y-38543800D01*
X12414286Y-38543800D02*
X12442857Y-38515228D01*
X12442857Y-38515228D02*
X12471428Y-38458085D01*
X12471428Y-38458085D02*
X12471428Y-38315228D01*
X12471428Y-38315228D02*
X12442857Y-38258085D01*
X12442857Y-38258085D02*
X12414286Y-38229514D01*
X12414286Y-38229514D02*
X12357143Y-38200942D01*
X12357143Y-38200942D02*
X12242857Y-38200942D01*
X12242857Y-38200942D02*
X12185714Y-38229514D01*
X12185714Y-38229514D02*
X12157143Y-38258085D01*
X12157143Y-38258085D02*
X12128571Y-38315228D01*
D10*
X12904761Y-34050057D02*
X12809523Y-34002438D01*
X12809523Y-34002438D02*
X12714285Y-33907200D01*
X12714285Y-33907200D02*
X12571428Y-33764342D01*
X12571428Y-33764342D02*
X12476190Y-33716723D01*
X12476190Y-33716723D02*
X12380952Y-33716723D01*
X12428571Y-33954819D02*
X12333333Y-33907200D01*
X12333333Y-33907200D02*
X12238095Y-33811961D01*
X12238095Y-33811961D02*
X12190476Y-33621485D01*
X12190476Y-33621485D02*
X12190476Y-33288152D01*
X12190476Y-33288152D02*
X12238095Y-33097676D01*
X12238095Y-33097676D02*
X12333333Y-33002438D01*
X12333333Y-33002438D02*
X12428571Y-32954819D01*
X12428571Y-32954819D02*
X12619047Y-32954819D01*
X12619047Y-32954819D02*
X12714285Y-33002438D01*
X12714285Y-33002438D02*
X12809523Y-33097676D01*
X12809523Y-33097676D02*
X12857142Y-33288152D01*
X12857142Y-33288152D02*
X12857142Y-33621485D01*
X12857142Y-33621485D02*
X12809523Y-33811961D01*
X12809523Y-33811961D02*
X12714285Y-33907200D01*
X12714285Y-33907200D02*
X12619047Y-33954819D01*
X12619047Y-33954819D02*
X12428571Y-33954819D01*
X13809523Y-33954819D02*
X13238095Y-33954819D01*
X13523809Y-33954819D02*
X13523809Y-32954819D01*
X13523809Y-32954819D02*
X13428571Y-33097676D01*
X13428571Y-33097676D02*
X13333333Y-33192914D01*
X13333333Y-33192914D02*
X13238095Y-33240533D01*
X6238095Y-32954819D02*
X6238095Y-33764342D01*
X6238095Y-33764342D02*
X6285714Y-33859580D01*
X6285714Y-33859580D02*
X6333333Y-33907200D01*
X6333333Y-33907200D02*
X6428571Y-33954819D01*
X6428571Y-33954819D02*
X6619047Y-33954819D01*
X6619047Y-33954819D02*
X6714285Y-33907200D01*
X6714285Y-33907200D02*
X6761904Y-33859580D01*
X6761904Y-33859580D02*
X6809523Y-33764342D01*
X6809523Y-33764342D02*
X6809523Y-32954819D01*
X7761904Y-32954819D02*
X7285714Y-32954819D01*
X7285714Y-32954819D02*
X7238095Y-33431009D01*
X7238095Y-33431009D02*
X7285714Y-33383390D01*
X7285714Y-33383390D02*
X7380952Y-33335771D01*
X7380952Y-33335771D02*
X7619047Y-33335771D01*
X7619047Y-33335771D02*
X7714285Y-33383390D01*
X7714285Y-33383390D02*
X7761904Y-33431009D01*
X7761904Y-33431009D02*
X7809523Y-33526247D01*
X7809523Y-33526247D02*
X7809523Y-33764342D01*
X7809523Y-33764342D02*
X7761904Y-33859580D01*
X7761904Y-33859580D02*
X7714285Y-33907200D01*
X7714285Y-33907200D02*
X7619047Y-33954819D01*
X7619047Y-33954819D02*
X7380952Y-33954819D01*
X7380952Y-33954819D02*
X7285714Y-33907200D01*
X7285714Y-33907200D02*
X7238095Y-33859580D01*
D11*
X18900000Y-38572371D02*
X18700000Y-38286657D01*
X18557143Y-38572371D02*
X18557143Y-37972371D01*
X18557143Y-37972371D02*
X18785714Y-37972371D01*
X18785714Y-37972371D02*
X18842857Y-38000942D01*
X18842857Y-38000942D02*
X18871428Y-38029514D01*
X18871428Y-38029514D02*
X18900000Y-38086657D01*
X18900000Y-38086657D02*
X18900000Y-38172371D01*
X18900000Y-38172371D02*
X18871428Y-38229514D01*
X18871428Y-38229514D02*
X18842857Y-38258085D01*
X18842857Y-38258085D02*
X18785714Y-38286657D01*
X18785714Y-38286657D02*
X18557143Y-38286657D01*
X19100000Y-37972371D02*
X19500000Y-37972371D01*
X19500000Y-37972371D02*
X19242857Y-38572371D01*
D10*
X29238095Y-3454819D02*
X29238095Y-4264342D01*
X29238095Y-4264342D02*
X29285714Y-4359580D01*
X29285714Y-4359580D02*
X29333333Y-4407200D01*
X29333333Y-4407200D02*
X29428571Y-4454819D01*
X29428571Y-4454819D02*
X29619047Y-4454819D01*
X29619047Y-4454819D02*
X29714285Y-4407200D01*
X29714285Y-4407200D02*
X29761904Y-4359580D01*
X29761904Y-4359580D02*
X29809523Y-4264342D01*
X29809523Y-4264342D02*
X29809523Y-3454819D01*
X30809523Y-4454819D02*
X30238095Y-4454819D01*
X30523809Y-4454819D02*
X30523809Y-3454819D01*
X30523809Y-3454819D02*
X30428571Y-3597676D01*
X30428571Y-3597676D02*
X30333333Y-3692914D01*
X30333333Y-3692914D02*
X30238095Y-3740533D01*
X49238095Y-24004819D02*
X49238095Y-24814342D01*
X49238095Y-24814342D02*
X49285714Y-24909580D01*
X49285714Y-24909580D02*
X49333333Y-24957200D01*
X49333333Y-24957200D02*
X49428571Y-25004819D01*
X49428571Y-25004819D02*
X49619047Y-25004819D01*
X49619047Y-25004819D02*
X49714285Y-24957200D01*
X49714285Y-24957200D02*
X49761904Y-24909580D01*
X49761904Y-24909580D02*
X49809523Y-24814342D01*
X49809523Y-24814342D02*
X49809523Y-24004819D01*
X50238095Y-24100057D02*
X50285714Y-24052438D01*
X50285714Y-24052438D02*
X50380952Y-24004819D01*
X50380952Y-24004819D02*
X50619047Y-24004819D01*
X50619047Y-24004819D02*
X50714285Y-24052438D01*
X50714285Y-24052438D02*
X50761904Y-24100057D01*
X50761904Y-24100057D02*
X50809523Y-24195295D01*
X50809523Y-24195295D02*
X50809523Y-24290533D01*
X50809523Y-24290533D02*
X50761904Y-24433390D01*
X50761904Y-24433390D02*
X50190476Y-25004819D01*
X50190476Y-25004819D02*
X50809523Y-25004819D01*
X12238095Y-13054819D02*
X12238095Y-13864342D01*
X12238095Y-13864342D02*
X12285714Y-13959580D01*
X12285714Y-13959580D02*
X12333333Y-14007200D01*
X12333333Y-14007200D02*
X12428571Y-14054819D01*
X12428571Y-14054819D02*
X12619047Y-14054819D01*
X12619047Y-14054819D02*
X12714285Y-14007200D01*
X12714285Y-14007200D02*
X12761904Y-13959580D01*
X12761904Y-13959580D02*
X12809523Y-13864342D01*
X12809523Y-13864342D02*
X12809523Y-13054819D01*
X13190476Y-13054819D02*
X13809523Y-13054819D01*
X13809523Y-13054819D02*
X13476190Y-13435771D01*
X13476190Y-13435771D02*
X13619047Y-13435771D01*
X13619047Y-13435771D02*
X13714285Y-13483390D01*
X13714285Y-13483390D02*
X13761904Y-13531009D01*
X13761904Y-13531009D02*
X13809523Y-13626247D01*
X13809523Y-13626247D02*
X13809523Y-13864342D01*
X13809523Y-13864342D02*
X13761904Y-13959580D01*
X13761904Y-13959580D02*
X13714285Y-14007200D01*
X13714285Y-14007200D02*
X13619047Y-14054819D01*
X13619047Y-14054819D02*
X13333333Y-14054819D01*
X13333333Y-14054819D02*
X13238095Y-14007200D01*
X13238095Y-14007200D02*
X13190476Y-13959580D01*
X4166666Y-18809819D02*
X4166666Y-19524104D01*
X4166666Y-19524104D02*
X4119047Y-19666961D01*
X4119047Y-19666961D02*
X4023809Y-19762200D01*
X4023809Y-19762200D02*
X3880952Y-19809819D01*
X3880952Y-19809819D02*
X3785714Y-19809819D01*
X5166666Y-19809819D02*
X4595238Y-19809819D01*
X4880952Y-19809819D02*
X4880952Y-18809819D01*
X4880952Y-18809819D02*
X4785714Y-18952676D01*
X4785714Y-18952676D02*
X4690476Y-19047914D01*
X4690476Y-19047914D02*
X4595238Y-19095533D01*
X59566666Y-9454819D02*
X59566666Y-10169104D01*
X59566666Y-10169104D02*
X59519047Y-10311961D01*
X59519047Y-10311961D02*
X59423809Y-10407200D01*
X59423809Y-10407200D02*
X59280952Y-10454819D01*
X59280952Y-10454819D02*
X59185714Y-10454819D01*
X59995238Y-9550057D02*
X60042857Y-9502438D01*
X60042857Y-9502438D02*
X60138095Y-9454819D01*
X60138095Y-9454819D02*
X60376190Y-9454819D01*
X60376190Y-9454819D02*
X60471428Y-9502438D01*
X60471428Y-9502438D02*
X60519047Y-9550057D01*
X60519047Y-9550057D02*
X60566666Y-9645295D01*
X60566666Y-9645295D02*
X60566666Y-9740533D01*
X60566666Y-9740533D02*
X60519047Y-9883390D01*
X60519047Y-9883390D02*
X59947619Y-10454819D01*
X59947619Y-10454819D02*
X60566666Y-10454819D01*
X59566666Y-22454819D02*
X59566666Y-23169104D01*
X59566666Y-23169104D02*
X59519047Y-23311961D01*
X59519047Y-23311961D02*
X59423809Y-23407200D01*
X59423809Y-23407200D02*
X59280952Y-23454819D01*
X59280952Y-23454819D02*
X59185714Y-23454819D01*
X59947619Y-22454819D02*
X60566666Y-22454819D01*
X60566666Y-22454819D02*
X60233333Y-22835771D01*
X60233333Y-22835771D02*
X60376190Y-22835771D01*
X60376190Y-22835771D02*
X60471428Y-22883390D01*
X60471428Y-22883390D02*
X60519047Y-22931009D01*
X60519047Y-22931009D02*
X60566666Y-23026247D01*
X60566666Y-23026247D02*
X60566666Y-23264342D01*
X60566666Y-23264342D02*
X60519047Y-23359580D01*
X60519047Y-23359580D02*
X60471428Y-23407200D01*
X60471428Y-23407200D02*
X60376190Y-23454819D01*
X60376190Y-23454819D02*
X60090476Y-23454819D01*
X60090476Y-23454819D02*
X59995238Y-23407200D01*
X59995238Y-23407200D02*
X59947619Y-23359580D01*
X59566666Y-33454819D02*
X59566666Y-34169104D01*
X59566666Y-34169104D02*
X59519047Y-34311961D01*
X59519047Y-34311961D02*
X59423809Y-34407200D01*
X59423809Y-34407200D02*
X59280952Y-34454819D01*
X59280952Y-34454819D02*
X59185714Y-34454819D01*
X60471428Y-33788152D02*
X60471428Y-34454819D01*
X60233333Y-33407200D02*
X59995238Y-34121485D01*
X59995238Y-34121485D02*
X60614285Y-34121485D01*
X3666667Y-40807200D02*
X3809524Y-40854819D01*
X3809524Y-40854819D02*
X4047619Y-40854819D01*
X4047619Y-40854819D02*
X4142857Y-40807200D01*
X4142857Y-40807200D02*
X4190476Y-40759580D01*
X4190476Y-40759580D02*
X4238095Y-40664342D01*
X4238095Y-40664342D02*
X4238095Y-40569104D01*
X4238095Y-40569104D02*
X4190476Y-40473866D01*
X4190476Y-40473866D02*
X4142857Y-40426247D01*
X4142857Y-40426247D02*
X4047619Y-40378628D01*
X4047619Y-40378628D02*
X3857143Y-40331009D01*
X3857143Y-40331009D02*
X3761905Y-40283390D01*
X3761905Y-40283390D02*
X3714286Y-40235771D01*
X3714286Y-40235771D02*
X3666667Y-40140533D01*
X3666667Y-40140533D02*
X3666667Y-40045295D01*
X3666667Y-40045295D02*
X3714286Y-39950057D01*
X3714286Y-39950057D02*
X3761905Y-39902438D01*
X3761905Y-39902438D02*
X3857143Y-39854819D01*
X3857143Y-39854819D02*
X4095238Y-39854819D01*
X4095238Y-39854819D02*
X4238095Y-39902438D01*
X4571429Y-39854819D02*
X4809524Y-40854819D01*
X4809524Y-40854819D02*
X5000000Y-40140533D01*
X5000000Y-40140533D02*
X5190476Y-40854819D01*
X5190476Y-40854819D02*
X5428572Y-39854819D01*
X6333333Y-40854819D02*
X5761905Y-40854819D01*
X6047619Y-40854819D02*
X6047619Y-39854819D01*
X6047619Y-39854819D02*
X5952381Y-39997676D01*
X5952381Y-39997676D02*
X5857143Y-40092914D01*
X5857143Y-40092914D02*
X5761905Y-40140533D01*
X10833333Y-25804819D02*
X10500000Y-25328628D01*
X10261905Y-25804819D02*
X10261905Y-24804819D01*
X10261905Y-24804819D02*
X10642857Y-24804819D01*
X10642857Y-24804819D02*
X10738095Y-24852438D01*
X10738095Y-24852438D02*
X10785714Y-24900057D01*
X10785714Y-24900057D02*
X10833333Y-24995295D01*
X10833333Y-24995295D02*
X10833333Y-25138152D01*
X10833333Y-25138152D02*
X10785714Y-25233390D01*
X10785714Y-25233390D02*
X10738095Y-25281009D01*
X10738095Y-25281009D02*
X10642857Y-25328628D01*
X10642857Y-25328628D02*
X10261905Y-25328628D01*
X11785714Y-25804819D02*
X11214286Y-25804819D01*
X11500000Y-25804819D02*
X11500000Y-24804819D01*
X11500000Y-24804819D02*
X11404762Y-24947676D01*
X11404762Y-24947676D02*
X11309524Y-25042914D01*
X11309524Y-25042914D02*
X11214286Y-25090533D01*
X10833333Y-29804819D02*
X10500000Y-29328628D01*
X10261905Y-29804819D02*
X10261905Y-28804819D01*
X10261905Y-28804819D02*
X10642857Y-28804819D01*
X10642857Y-28804819D02*
X10738095Y-28852438D01*
X10738095Y-28852438D02*
X10785714Y-28900057D01*
X10785714Y-28900057D02*
X10833333Y-28995295D01*
X10833333Y-28995295D02*
X10833333Y-29138152D01*
X10833333Y-29138152D02*
X10785714Y-29233390D01*
X10785714Y-29233390D02*
X10738095Y-29281009D01*
X10738095Y-29281009D02*
X10642857Y-29328628D01*
X10642857Y-29328628D02*
X10261905Y-29328628D01*
X11214286Y-28900057D02*
X11261905Y-28852438D01*
X11261905Y-28852438D02*
X11357143Y-28804819D01*
X11357143Y-28804819D02*
X11595238Y-28804819D01*
X11595238Y-28804819D02*
X11690476Y-28852438D01*
X11690476Y-28852438D02*
X11738095Y-28900057D01*
X11738095Y-28900057D02*
X11785714Y-28995295D01*
X11785714Y-28995295D02*
X11785714Y-29090533D01*
X11785714Y-29090533D02*
X11738095Y-29233390D01*
X11738095Y-29233390D02*
X11166667Y-29804819D01*
X11166667Y-29804819D02*
X11785714Y-29804819D01*
X9833333Y-7804819D02*
X9500000Y-7328628D01*
X9261905Y-7804819D02*
X9261905Y-6804819D01*
X9261905Y-6804819D02*
X9642857Y-6804819D01*
X9642857Y-6804819D02*
X9738095Y-6852438D01*
X9738095Y-6852438D02*
X9785714Y-6900057D01*
X9785714Y-6900057D02*
X9833333Y-6995295D01*
X9833333Y-6995295D02*
X9833333Y-7138152D01*
X9833333Y-7138152D02*
X9785714Y-7233390D01*
X9785714Y-7233390D02*
X9738095Y-7281009D01*
X9738095Y-7281009D02*
X9642857Y-7328628D01*
X9642857Y-7328628D02*
X9261905Y-7328628D01*
X10166667Y-6804819D02*
X10785714Y-6804819D01*
X10785714Y-6804819D02*
X10452381Y-7185771D01*
X10452381Y-7185771D02*
X10595238Y-7185771D01*
X10595238Y-7185771D02*
X10690476Y-7233390D01*
X10690476Y-7233390D02*
X10738095Y-7281009D01*
X10738095Y-7281009D02*
X10785714Y-7376247D01*
X10785714Y-7376247D02*
X10785714Y-7614342D01*
X10785714Y-7614342D02*
X10738095Y-7709580D01*
X10738095Y-7709580D02*
X10690476Y-7757200D01*
X10690476Y-7757200D02*
X10595238Y-7804819D01*
X10595238Y-7804819D02*
X10309524Y-7804819D01*
X10309524Y-7804819D02*
X10214286Y-7757200D01*
X10214286Y-7757200D02*
X10166667Y-7709580D01*
X2833333Y-15804819D02*
X2500000Y-15328628D01*
X2261905Y-15804819D02*
X2261905Y-14804819D01*
X2261905Y-14804819D02*
X2642857Y-14804819D01*
X2642857Y-14804819D02*
X2738095Y-14852438D01*
X2738095Y-14852438D02*
X2785714Y-14900057D01*
X2785714Y-14900057D02*
X2833333Y-14995295D01*
X2833333Y-14995295D02*
X2833333Y-15138152D01*
X2833333Y-15138152D02*
X2785714Y-15233390D01*
X2785714Y-15233390D02*
X2738095Y-15281009D01*
X2738095Y-15281009D02*
X2642857Y-15328628D01*
X2642857Y-15328628D02*
X2261905Y-15328628D01*
X3690476Y-15138152D02*
X3690476Y-15804819D01*
X3452381Y-14757200D02*
X3214286Y-15471485D01*
X3214286Y-15471485D02*
X3833333Y-15471485D01*
X6333333Y-15804819D02*
X6000000Y-15328628D01*
X5761905Y-15804819D02*
X5761905Y-14804819D01*
X5761905Y-14804819D02*
X6142857Y-14804819D01*
X6142857Y-14804819D02*
X6238095Y-14852438D01*
X6238095Y-14852438D02*
X6285714Y-14900057D01*
X6285714Y-14900057D02*
X6333333Y-14995295D01*
X6333333Y-14995295D02*
X6333333Y-15138152D01*
X6333333Y-15138152D02*
X6285714Y-15233390D01*
X6285714Y-15233390D02*
X6238095Y-15281009D01*
X6238095Y-15281009D02*
X6142857Y-15328628D01*
X6142857Y-15328628D02*
X5761905Y-15328628D01*
X7238095Y-14804819D02*
X6761905Y-14804819D01*
X6761905Y-14804819D02*
X6714286Y-15281009D01*
X6714286Y-15281009D02*
X6761905Y-15233390D01*
X6761905Y-15233390D02*
X6857143Y-15185771D01*
X6857143Y-15185771D02*
X7095238Y-15185771D01*
X7095238Y-15185771D02*
X7190476Y-15233390D01*
X7190476Y-15233390D02*
X7238095Y-15281009D01*
X7238095Y-15281009D02*
X7285714Y-15376247D01*
X7285714Y-15376247D02*
X7285714Y-15614342D01*
X7285714Y-15614342D02*
X7238095Y-15709580D01*
X7238095Y-15709580D02*
X7190476Y-15757200D01*
X7190476Y-15757200D02*
X7095238Y-15804819D01*
X7095238Y-15804819D02*
X6857143Y-15804819D01*
X6857143Y-15804819D02*
X6761905Y-15757200D01*
X6761905Y-15757200D02*
X6714286Y-15709580D01*
X5261905Y-6804819D02*
X5261905Y-5804819D01*
X5261905Y-5804819D02*
X5500000Y-5804819D01*
X5500000Y-5804819D02*
X5642857Y-5852438D01*
X5642857Y-5852438D02*
X5738095Y-5947676D01*
X5738095Y-5947676D02*
X5785714Y-6042914D01*
X5785714Y-6042914D02*
X5833333Y-6233390D01*
X5833333Y-6233390D02*
X5833333Y-6376247D01*
X5833333Y-6376247D02*
X5785714Y-6566723D01*
X5785714Y-6566723D02*
X5738095Y-6661961D01*
X5738095Y-6661961D02*
X5642857Y-6757200D01*
X5642857Y-6757200D02*
X5500000Y-6804819D01*
X5500000Y-6804819D02*
X5261905Y-6804819D01*
X6785714Y-6804819D02*
X6214286Y-6804819D01*
X6500000Y-6804819D02*
X6500000Y-5804819D01*
X6500000Y-5804819D02*
X6404762Y-5947676D01*
X6404762Y-5947676D02*
X6309524Y-6042914D01*
X6309524Y-6042914D02*
X6214286Y-6090533D01*
X4833333Y-10009580D02*
X4785714Y-10057200D01*
X4785714Y-10057200D02*
X4642857Y-10104819D01*
X4642857Y-10104819D02*
X4547619Y-10104819D01*
X4547619Y-10104819D02*
X4404762Y-10057200D01*
X4404762Y-10057200D02*
X4309524Y-9961961D01*
X4309524Y-9961961D02*
X4261905Y-9866723D01*
X4261905Y-9866723D02*
X4214286Y-9676247D01*
X4214286Y-9676247D02*
X4214286Y-9533390D01*
X4214286Y-9533390D02*
X4261905Y-9342914D01*
X4261905Y-9342914D02*
X4309524Y-9247676D01*
X4309524Y-9247676D02*
X4404762Y-9152438D01*
X4404762Y-9152438D02*
X4547619Y-9104819D01*
X4547619Y-9104819D02*
X4642857Y-9104819D01*
X4642857Y-9104819D02*
X4785714Y-9152438D01*
X4785714Y-9152438D02*
X4833333Y-9200057D01*
X5785714Y-10104819D02*
X5214286Y-10104819D01*
X5500000Y-10104819D02*
X5500000Y-9104819D01*
X5500000Y-9104819D02*
X5404762Y-9247676D01*
X5404762Y-9247676D02*
X5309524Y-9342914D01*
X5309524Y-9342914D02*
X5214286Y-9390533D01*
X12833333Y-20679580D02*
X12785714Y-20727200D01*
X12785714Y-20727200D02*
X12642857Y-20774819D01*
X12642857Y-20774819D02*
X12547619Y-20774819D01*
X12547619Y-20774819D02*
X12404762Y-20727200D01*
X12404762Y-20727200D02*
X12309524Y-20631961D01*
X12309524Y-20631961D02*
X12261905Y-20536723D01*
X12261905Y-20536723D02*
X12214286Y-20346247D01*
X12214286Y-20346247D02*
X12214286Y-20203390D01*
X12214286Y-20203390D02*
X12261905Y-20012914D01*
X12261905Y-20012914D02*
X12309524Y-19917676D01*
X12309524Y-19917676D02*
X12404762Y-19822438D01*
X12404762Y-19822438D02*
X12547619Y-19774819D01*
X12547619Y-19774819D02*
X12642857Y-19774819D01*
X12642857Y-19774819D02*
X12785714Y-19822438D01*
X12785714Y-19822438D02*
X12833333Y-19870057D01*
X13214286Y-19870057D02*
X13261905Y-19822438D01*
X13261905Y-19822438D02*
X13357143Y-19774819D01*
X13357143Y-19774819D02*
X13595238Y-19774819D01*
X13595238Y-19774819D02*
X13690476Y-19822438D01*
X13690476Y-19822438D02*
X13738095Y-19870057D01*
X13738095Y-19870057D02*
X13785714Y-19965295D01*
X13785714Y-19965295D02*
X13785714Y-20060533D01*
X13785714Y-20060533D02*
X13738095Y-20203390D01*
X13738095Y-20203390D02*
X13166667Y-20774819D01*
X13166667Y-20774819D02*
X13785714Y-20774819D01*
X25833333Y-38009580D02*
X25785714Y-38057200D01*
X25785714Y-38057200D02*
X25642857Y-38104819D01*
X25642857Y-38104819D02*
X25547619Y-38104819D01*
X25547619Y-38104819D02*
X25404762Y-38057200D01*
X25404762Y-38057200D02*
X25309524Y-37961961D01*
X25309524Y-37961961D02*
X25261905Y-37866723D01*
X25261905Y-37866723D02*
X25214286Y-37676247D01*
X25214286Y-37676247D02*
X25214286Y-37533390D01*
X25214286Y-37533390D02*
X25261905Y-37342914D01*
X25261905Y-37342914D02*
X25309524Y-37247676D01*
X25309524Y-37247676D02*
X25404762Y-37152438D01*
X25404762Y-37152438D02*
X25547619Y-37104819D01*
X25547619Y-37104819D02*
X25642857Y-37104819D01*
X25642857Y-37104819D02*
X25785714Y-37152438D01*
X25785714Y-37152438D02*
X25833333Y-37200057D01*
X26738095Y-37104819D02*
X26261905Y-37104819D01*
X26261905Y-37104819D02*
X26214286Y-37581009D01*
X26214286Y-37581009D02*
X26261905Y-37533390D01*
X26261905Y-37533390D02*
X26357143Y-37485771D01*
X26357143Y-37485771D02*
X26595238Y-37485771D01*
X26595238Y-37485771D02*
X26690476Y-37533390D01*
X26690476Y-37533390D02*
X26738095Y-37581009D01*
X26738095Y-37581009D02*
X26785714Y-37676247D01*
X26785714Y-37676247D02*
X26785714Y-37914342D01*
X26785714Y-37914342D02*
X26738095Y-38009580D01*
X26738095Y-38009580D02*
X26690476Y-38057200D01*
X26690476Y-38057200D02*
X26595238Y-38104819D01*
X26595238Y-38104819D02*
X26357143Y-38104819D01*
X26357143Y-38104819D02*
X26261905Y-38057200D01*
X26261905Y-38057200D02*
X26214286Y-38009580D01*
X53833333Y-18679580D02*
X53785714Y-18727200D01*
X53785714Y-18727200D02*
X53642857Y-18774819D01*
X53642857Y-18774819D02*
X53547619Y-18774819D01*
X53547619Y-18774819D02*
X53404762Y-18727200D01*
X53404762Y-18727200D02*
X53309524Y-18631961D01*
X53309524Y-18631961D02*
X53261905Y-18536723D01*
X53261905Y-18536723D02*
X53214286Y-18346247D01*
X53214286Y-18346247D02*
X53214286Y-18203390D01*
X53214286Y-18203390D02*
X53261905Y-18012914D01*
X53261905Y-18012914D02*
X53309524Y-17917676D01*
X53309524Y-17917676D02*
X53404762Y-17822438D01*
X53404762Y-17822438D02*
X53547619Y-17774819D01*
X53547619Y-17774819D02*
X53642857Y-17774819D01*
X53642857Y-17774819D02*
X53785714Y-17822438D01*
X53785714Y-17822438D02*
X53833333Y-17870057D01*
X54690476Y-17774819D02*
X54500000Y-17774819D01*
X54500000Y-17774819D02*
X54404762Y-17822438D01*
X54404762Y-17822438D02*
X54357143Y-17870057D01*
X54357143Y-17870057D02*
X54261905Y-18012914D01*
X54261905Y-18012914D02*
X54214286Y-18203390D01*
X54214286Y-18203390D02*
X54214286Y-18584342D01*
X54214286Y-18584342D02*
X54261905Y-18679580D01*
X54261905Y-18679580D02*
X54309524Y-18727200D01*
X54309524Y-18727200D02*
X54404762Y-18774819D01*
X54404762Y-18774819D02*
X54595238Y-18774819D01*
X54595238Y-18774819D02*
X54690476Y-18727200D01*
X54690476Y-18727200D02*
X54738095Y-18679580D01*
X54738095Y-18679580D02*
X54785714Y-18584342D01*
X54785714Y-18584342D02*
X54785714Y-18346247D01*
X54785714Y-18346247D02*
X54738095Y-18251009D01*
X54738095Y-18251009D02*
X54690476Y-18203390D01*
X54690476Y-18203390D02*
X54595238Y-18155771D01*
X54595238Y-18155771D02*
X54404762Y-18155771D01*
X54404762Y-18155771D02*
X54309524Y-18203390D01*
X54309524Y-18203390D02*
X54261905Y-18251009D01*
X54261905Y-18251009D02*
X54214286Y-18346247D01*
X53833333Y-22679580D02*
X53785714Y-22727200D01*
X53785714Y-22727200D02*
X53642857Y-22774819D01*
X53642857Y-22774819D02*
X53547619Y-22774819D01*
X53547619Y-22774819D02*
X53404762Y-22727200D01*
X53404762Y-22727200D02*
X53309524Y-22631961D01*
X53309524Y-22631961D02*
X53261905Y-22536723D01*
X53261905Y-22536723D02*
X53214286Y-22346247D01*
X53214286Y-22346247D02*
X53214286Y-22203390D01*
X53214286Y-22203390D02*
X53261905Y-22012914D01*
X53261905Y-22012914D02*
X53309524Y-21917676D01*
X53309524Y-21917676D02*
X53404762Y-21822438D01*
X53404762Y-21822438D02*
X53547619Y-21774819D01*
X53547619Y-21774819D02*
X53642857Y-21774819D01*
X53642857Y-21774819D02*
X53785714Y-21822438D01*
X53785714Y-21822438D02*
X53833333Y-21870057D01*
X54166667Y-21774819D02*
X54833333Y-21774819D01*
X54833333Y-21774819D02*
X54404762Y-22774819D01*
X32690476Y-39954819D02*
X32690476Y-38954819D01*
X32690476Y-38954819D02*
X33023809Y-39669104D01*
X33023809Y-39669104D02*
X33357142Y-38954819D01*
X33357142Y-38954819D02*
X33357142Y-39954819D01*
X33833333Y-39954819D02*
X33833333Y-38954819D01*
X34404761Y-39954819D02*
X33976190Y-39383390D01*
X34404761Y-38954819D02*
X33833333Y-39526247D01*
X35357142Y-39954819D02*
X34785714Y-39954819D01*
X35071428Y-39954819D02*
X35071428Y-38954819D01*
X35071428Y-38954819D02*
X34976190Y-39097676D01*
X34976190Y-39097676D02*
X34880952Y-39192914D01*
X34880952Y-39192914D02*
X34785714Y-39240533D01*
X33833333Y-38679580D02*
X33785714Y-38727200D01*
X33785714Y-38727200D02*
X33642857Y-38774819D01*
X33642857Y-38774819D02*
X33547619Y-38774819D01*
X33547619Y-38774819D02*
X33404762Y-38727200D01*
X33404762Y-38727200D02*
X33309524Y-38631961D01*
X33309524Y-38631961D02*
X33261905Y-38536723D01*
X33261905Y-38536723D02*
X33214286Y-38346247D01*
X33214286Y-38346247D02*
X33214286Y-38203390D01*
X33214286Y-38203390D02*
X33261905Y-38012914D01*
X33261905Y-38012914D02*
X33309524Y-37917676D01*
X33309524Y-37917676D02*
X33404762Y-37822438D01*
X33404762Y-37822438D02*
X33547619Y-37774819D01*
X33547619Y-37774819D02*
X33642857Y-37774819D01*
X33642857Y-37774819D02*
X33785714Y-37822438D01*
X33785714Y-37822438D02*
X33833333Y-37870057D01*
X34404762Y-38203390D02*
X34309524Y-38155771D01*
X34309524Y-38155771D02*
X34261905Y-38108152D01*
X34261905Y-38108152D02*
X34214286Y-38012914D01*
X34214286Y-38012914D02*
X34214286Y-37965295D01*
X34214286Y-37965295D02*
X34261905Y-37870057D01*
X34261905Y-37870057D02*
X34309524Y-37822438D01*
X34309524Y-37822438D02*
X34404762Y-37774819D01*
X34404762Y-37774819D02*
X34595238Y-37774819D01*
X34595238Y-37774819D02*
X34690476Y-37822438D01*
X34690476Y-37822438D02*
X34738095Y-37870057D01*
X34738095Y-37870057D02*
X34785714Y-37965295D01*
X34785714Y-37965295D02*
X34785714Y-38012914D01*
X34785714Y-38012914D02*
X34738095Y-38108152D01*
X34738095Y-38108152D02*
X34690476Y-38155771D01*
X34690476Y-38155771D02*
X34595238Y-38203390D01*
X34595238Y-38203390D02*
X34404762Y-38203390D01*
X34404762Y-38203390D02*
X34309524Y-38251009D01*
X34309524Y-38251009D02*
X34261905Y-38298628D01*
X34261905Y-38298628D02*
X34214286Y-38393866D01*
X34214286Y-38393866D02*
X34214286Y-38584342D01*
X34214286Y-38584342D02*
X34261905Y-38679580D01*
X34261905Y-38679580D02*
X34309524Y-38727200D01*
X34309524Y-38727200D02*
X34404762Y-38774819D01*
X34404762Y-38774819D02*
X34595238Y-38774819D01*
X34595238Y-38774819D02*
X34690476Y-38727200D01*
X34690476Y-38727200D02*
X34738095Y-38679580D01*
X34738095Y-38679580D02*
X34785714Y-38584342D01*
X34785714Y-38584342D02*
X34785714Y-38393866D01*
X34785714Y-38393866D02*
X34738095Y-38298628D01*
X34738095Y-38298628D02*
X34690476Y-38251009D01*
X34690476Y-38251009D02*
X34595238Y-38203390D01*
D12*
%TO.C,U1*%
X20800000Y-8100000D02*
X20800000Y-33950000D01*
X20800000Y-8100000D02*
X39200000Y-8100000D01*
X20800000Y-33950000D02*
X39200000Y-33950000D01*
X39200000Y-8100000D02*
X39200000Y-33950000D01*
%TO.C,U2*%
X47690000Y-25265000D02*
X52310000Y-25265000D01*
X52310000Y-30735000D02*
X47690000Y-30735000D01*
X46140000Y-25720000D02*
X45810000Y-25960000D01*
X45810000Y-25480000D01*
X46140000Y-25720000D01*
G36*
X46140000Y-25720000D02*
G01*
X45810000Y-25960000D01*
X45810000Y-25480000D01*
X46140000Y-25720000D01*
G37*
%TO.C,U3*%
X12090000Y-14440000D02*
X13910000Y-14440000D01*
X13910000Y-17560000D02*
X12090000Y-17560000D01*
X11550000Y-14490000D02*
X11310000Y-14160000D01*
X11790000Y-14160000D01*
X11550000Y-14490000D01*
G36*
X11550000Y-14490000D02*
G01*
X11310000Y-14160000D01*
X11790000Y-14160000D01*
X11550000Y-14490000D01*
G37*
%TO.C,J1*%
X-200000Y-23100000D02*
X-200000Y-28900000D01*
X-200000Y-28900000D02*
X9200000Y-28900000D01*
X9200000Y-23100000D02*
X9200000Y-28900000D01*
%TO.C,J2*%
X58810000Y-6940000D02*
X54090000Y-6940000D01*
X54090000Y-13060000D01*
X58810000Y-13060000D01*
X58810000Y-6940000D01*
%TO.C,J3*%
X58810000Y-19940000D02*
X54090000Y-19940000D01*
X54090000Y-26060000D01*
X58810000Y-26060000D01*
X58810000Y-19940000D01*
%TO.C,J4*%
X58810000Y-30940000D02*
X54090000Y-30940000D01*
X54090000Y-37060000D01*
X58810000Y-37060000D01*
X58810000Y-30940000D01*
%TO.C,SW1*%
X2280000Y-45040000D02*
X2280000Y-42960000D01*
X3550000Y-41280000D02*
X6450000Y-41280000D01*
X3550000Y-46720000D02*
X6450000Y-46720000D01*
X7720000Y-45040000D02*
X7720000Y-42960000D01*
%TO.C,R1*%
X10772936Y-26265000D02*
X11227064Y-26265000D01*
X10772936Y-27735000D02*
X11227064Y-27735000D01*
%TO.C,R2*%
X10772936Y-30265000D02*
X11227064Y-30265000D01*
X10772936Y-31735000D02*
X11227064Y-31735000D01*
%TO.C,R3*%
X9772936Y-8265000D02*
X10227064Y-8265000D01*
X9772936Y-9735000D02*
X10227064Y-9735000D01*
%TO.C,R4*%
X2772936Y-16265000D02*
X3227064Y-16265000D01*
X2772936Y-17735000D02*
X3227064Y-17735000D01*
%TO.C,R5*%
X6272936Y-16265000D02*
X6727064Y-16265000D01*
X6272936Y-17735000D02*
X6727064Y-17735000D01*
%TO.C,D1*%
X4315000Y-7040000D02*
X4315000Y-8960000D01*
X4315000Y-8960000D02*
X7000000Y-8960000D01*
X7000000Y-7040000D02*
X4315000Y-7040000D01*
%TO.C,C1*%
X562500Y-12152500D02*
X1350000Y-12152500D01*
X956250Y-11758750D02*
X956250Y-12546250D01*
X1590000Y-11654437D02*
X1590000Y-12940000D01*
X1590000Y-16345563D02*
X8410000Y-16345563D01*
X8410000Y-10590000D02*
X8410000Y-17410000D01*
%TO.C,C2*%
X12738748Y-21265000D02*
X13261252Y-21265000D01*
X12738748Y-22735000D02*
X13261252Y-22735000D01*
%TO.C,C6*%
X53738748Y-19265000D02*
X54261252Y-19265000D01*
X53738748Y-20735000D02*
X54261252Y-20735000D01*
%TO.C,C7*%
X53738748Y-23265000D02*
X54261252Y-23265000D01*
X53738748Y-24735000D02*
X54261252Y-24735000D01*
%TO.C,MK1*%
X32120000Y-40640000D02*
X35880000Y-40640000D01*
X35880000Y-45360000D01*
X32120000Y-45360000D01*
X32120000Y-40640000D01*
%TO.C,C8*%
X33738748Y-39265000D02*
X34261252Y-39265000D01*
X33738748Y-40735000D02*
X34261252Y-40735000D01*
%TD*%
M02*
